<?xml version="1.0" encoding="UTF-8"?>
<svg version="1.1" xmlns="http://www.w3.org/2000/svg" width="500" height="100">
<path d="M0 0 C0.598125 0.391875 1.19625 0.78375 1.8125 1.1875 C2.740625 1.7134375 2.740625 1.7134375 3.6875 2.25 C7.52282487 4.63054647 9.50820757 7.12100641 11.8125 11 C13.18706979 13.34999727 13.18706979 13.34999727 14.8125 15.1875 C18.35480809 15.77092353 18.35480809 15.77092353 21.8125 15.1875 C25.17334077 16.18047568 27.90379146 17.17374967 29.8125 20.1875 C30.44762789 25.10974114 30.57983593 27.07137501 27.75 31.1875 C24.16592568 33.62772082 22.06268379 33.60418469 17.8125 33.1875 C17.78671875 33.744375 17.7609375 34.30125 17.734375 34.875 C17.067717 43.8445803 13.5093306 51.06468345 6.8125 57.1875 C6.1525 57.1875 5.4925 57.1875 4.8125 57.1875 C4.83570313 57.87457031 4.85890625 58.56164062 4.8828125 59.26953125 C4.90085937 60.17058594 4.91890625 61.07164063 4.9375 62 C4.96070313 62.89332031 4.98390625 63.78664063 5.0078125 64.70703125 C4.8125 67.1875 4.8125 67.1875 2.8125 70.1875 C0.0103659 70.49168469 -2.56696292 70.60750375 -5.37109375 70.5859375 C-6.1824025 70.58880768 -6.99371124 70.59167786 -7.8296051 70.59463501 C-9.54697364 70.59667813 -11.26436532 70.59113092 -12.98168945 70.57861328 C-15.61136992 70.56258309 -18.2395086 70.57844208 -20.86914062 70.59765625 C-22.53646173 70.59567345 -24.20378187 70.59182902 -25.87109375 70.5859375 C-26.65866562 70.59201019 -27.44623749 70.59808289 -28.25767517 70.6043396 C-33.68533617 70.53442056 -33.68533617 70.53442056 -36.1862793 68.80664062 C-37.5530715 66.59631 -37.52323933 64.89585184 -37.5625 62.3125 C-37.86450206 58.03436236 -37.86450206 58.03436236 -40.4375 54.5625 C-41.345 53.77875 -42.2525 52.995 -43.1875 52.1875 C-49.52696932 43.89742474 -51.09304682 35.49348521 -50.1875 25.1875 C-48.37555775 14.87922353 -42.67349303 7.16305342 -34.1875 1.1875 C-25.1988481 -5.05031446 -9.5096617 -5.34918471 0 0 Z M-17.1875 2.1875 C-17.1875 3.1775 -17.1875 4.1675 -17.1875 5.1875 C-16.1975 4.8575 -15.2075 4.5275 -14.1875 4.1875 C-14.5175 3.5275 -14.8475 2.8675 -15.1875 2.1875 C-15.8475 2.1875 -16.5075 2.1875 -17.1875 2.1875 Z M-32.1875 16.1875 C-33.69412097 19.20074195 -33.36520373 21.87036377 -33.1875 25.1875 C-32.5275 25.8475 -31.8675 26.5075 -31.1875 27.1875 C-31.105 26.07375 -31.0225 24.96 -30.9375 23.8125 C-30.1875 20.1875 -30.1875 20.1875 -28.44555664 18.9753418 C-25.92367853 18.09545201 -23.97622319 17.94397847 -21.30859375 17.95703125 C-19.92704102 17.95993164 -19.92704102 17.95993164 -18.51757812 17.96289062 C-17.56302734 17.97513672 -16.60847656 17.98738281 -15.625 18 C-14.66658203 18.00064453 -13.70816406 18.00128906 -12.72070312 18.00195312 C-5.60959263 18.04680246 -5.60959263 18.04680246 -2.1875 19.1875 C-1 22.75 -1 22.75 -0.1875 26.1875 C1.15567691 24.59436815 1.15567691 24.59436815 1.8125 22.1875 C0.48032329 18.19096987 -0.80055286 14.78893482 -4.1875 12.1875 C-7.94794605 11.54708652 -11.75367278 11.72426468 -15.5625 11.75 C-16.6040625 11.73001953 -17.645625 11.71003906 -18.71875 11.68945312 C-26.30372043 11.66846144 -26.30372043 11.66846144 -32.1875 16.1875 Z " fill="#74AA9C" transform="translate(468.1875,20.8125)"/>
<path d="M0 0 C0.91652344 -0.00257812 1.83304687 -0.00515625 2.77734375 -0.0078125 C4.20240234 0.00378906 4.20240234 0.00378906 5.65625 0.015625 C6.60628906 0.00789063 7.55632812 0.00015625 8.53515625 -0.0078125 C9.90994141 -0.00394531 9.90994141 -0.00394531 11.3125 0 C12.14587891 0.00225586 12.97925781 0.00451172 13.83789062 0.00683594 C17.25190355 0.38792837 19.40944817 1.57216616 21.90625 3.890625 C23.71485951 7.32698306 23.94503647 10.52260998 23.15625 14.265625 C20.08023099 18.42729777 17.12149059 19.99544718 12.15625 21.265625 C12.65125 21.69875 13.14625 22.131875 13.65625 22.578125 C15.15625 24.265625 15.15625 24.265625 15.15625 27.265625 C16.07857422 27.21341797 16.07857422 27.21341797 17.01953125 27.16015625 C17.82777344 27.13308594 18.63601563 27.10601562 19.46875 27.078125 C20.66951172 27.02591797 20.66951172 27.02591797 21.89453125 26.97265625 C24.73708018 27.34086207 25.42038355 28.02312849 27.15625 30.265625 C27.43676758 32.39453125 27.43676758 32.39453125 27.30078125 34.828125 C27.25501953 35.70726562 27.20925781 36.58640625 27.16210938 37.4921875 C27.09830078 38.40742187 27.03449219 39.32265625 26.96875 40.265625 C26.92427734 41.18085937 26.87980469 42.09609375 26.83398438 43.0390625 C26.4291499 49.85627515 26.4291499 49.85627515 24.15625 53.265625 C21.3541159 53.56980969 18.77678708 53.68562875 15.97265625 53.6640625 C15.1613475 53.66693268 14.35003876 53.66980286 13.5141449 53.67276001 C11.79677636 53.67480313 10.07938468 53.66925592 8.36206055 53.65673828 C5.73238008 53.64070809 3.1042414 53.65656708 0.47460938 53.67578125 C-1.19271173 53.67379845 -2.86003187 53.66995402 -4.52734375 53.6640625 C-5.70870155 53.67317154 -5.70870155 53.67317154 -6.91392517 53.6824646 C-12.27692494 53.61337852 -12.27692494 53.61337852 -14.83862305 52.04174805 C-16.14856034 49.7270058 -16.23162641 48.10633851 -16.2421875 45.44921875 C-16.24605469 44.52044922 -16.24992187 43.59167969 -16.25390625 42.63476562 C-16.24230469 41.66732422 -16.23070312 40.69988281 -16.21875 39.703125 C-16.23035156 38.73181641 -16.24195313 37.76050781 -16.25390625 36.75976562 C-16.25003906 35.83228516 -16.24617188 34.90480469 -16.2421875 33.94921875 C-16.23880371 33.09900146 -16.23541992 32.24878418 -16.23193359 31.37280273 C-16.03978271 30.32974976 -16.03978271 30.32974976 -15.84375 29.265625 C-12.75486478 27.20636819 -12.13439073 27.0265876 -8.65625 27.140625 C-7.398125 27.181875 -6.14 27.223125 -4.84375 27.265625 C-4.534375 26.46125 -4.225 25.656875 -3.90625 24.828125 C-2.84375 22.265625 -2.84375 22.265625 -1.84375 21.265625 C-2.91625 20.87375 -3.98875 20.481875 -5.09375 20.078125 C-8.78855998 18.45930359 -10.83734217 16.8771591 -12.84375 13.265625 C-13.15673801 10.50517335 -13.03316604 8.05951164 -12.84375 5.265625 C-11.85375 6.750625 -11.85375 6.750625 -10.84375 8.265625 C-10.59625 7.316875 -10.34875 6.368125 -10.09375 5.390625 C-8.84375 2.265625 -8.84375 2.265625 -7.06835938 1.08691406 C-4.57063936 0.16479706 -2.65858867 0.00719649 0 0 Z " fill="#EBEFF2" transform="translate(446.84375,37.734375)"/>
<path d="M0 0 C20.84615385 0 20.84615385 0 27.25 4.625 C31.40025626 10.25749064 31.36149508 17.04757334 30.484375 23.76171875 C29.86169762 26.63909081 28.84617504 28.71074295 27 31 C26.34 31.33 25.68 31.66 25 32 C25.78375 32.721875 26.5675 33.44375 27.375 34.1875 C32.42712399 39.60048999 32.37910246 44.69105124 32.25 51.83203125 C31.81809751 57.30504558 30.5597808 60.5543495 26.4375 64.375 C17.37460859 70.41692761 17.43619353 67 0 67 C0 44.89 0 22.78 0 0 Z M11 10 C11 15.94 11 21.88 11 28 C16.79514997 27.68253129 16.79514997 27.68253129 18.875 24.875 C20.53663945 20.62858807 20.48225081 17.03617009 19.4375 12.625 C17.57710987 10.16843633 17.57710987 10.16843633 11 10 Z M11 38 C11 44.27 11 50.54 11 57 C17.53962987 57.76339994 17.53962987 57.76339994 19.9140625 55.34375 C21.20660007 52.55410056 21.40029774 50.5694591 21.375 47.5 C21.38273437 46.5615625 21.39046875 45.623125 21.3984375 44.65625 C20.92035265 41.46901763 20.44904869 40.11917683 18 38 C15.69 38 13.38 38 11 38 Z " fill="#000000" transform="translate(297,18)"/>
<path d="M0 0 C3.63 0 7.26 0 11 0 C11 9.24 11 18.48 11 28 C14.63 28 18.26 28 22 28 C22 18.76 22 9.52 22 0 C25.63 0 29.26 0 33 0 C33 22.11 33 44.22 33 67 C29.37 67 25.74 67 22 67 C22 57.43 22 47.86 22 38 C18.37 38 14.74 38 11 38 C11 47.57 11 57.14 11 67 C7.37 67 3.74 67 0 67 C0 44.89 0 22.78 0 0 Z " fill="#000000" transform="translate(184,18)"/>
<path d="M0 0 C5.2696547 6.21549016 5.16041995 12.82453788 5.203125 20.58203125 C5.20882507 21.39564621 5.21452515 22.20926117 5.22039795 23.04753113 C5.22980683 24.76287553 5.23636549 26.47823767 5.24023438 28.19360352 C5.24993142 30.79410902 5.28098992 33.39382042 5.3125 35.99414062 C5.31903238 37.66926619 5.32428193 39.34439735 5.328125 41.01953125 C5.3404718 41.78546097 5.3528186 42.55139069 5.36553955 43.3405304 C5.33911082 49.86377055 4.19678465 56.23630318 0.0625 61.4375 C-5.61881847 65.74152915 -11.04240982 65.73765027 -18 65 C-21.85058189 63.75461949 -24.34766785 61.82628738 -26.875 58.625 C-29.27158708 53.03296348 -29.17109812 47.18183314 -29.203125 41.19921875 C-29.20882507 40.36340775 -29.21452515 39.52759674 -29.22039795 38.66645813 C-29.22980855 36.90403494 -29.23636618 35.14159446 -29.24023438 33.37915039 C-29.24993206 30.70622543 -29.28098933 28.03407281 -29.3125 25.36132812 C-29.31903226 23.64062952 -29.32428185 21.91992547 -29.328125 20.19921875 C-29.3404718 19.41141525 -29.3528186 18.62361176 -29.36553955 17.81193542 C-29.3418208 11.79935093 -28.64094593 5.12036205 -24.61871338 0.3679657 C-17.27406215 -6.08823824 -7.71598454 -5.54319067 0 0 Z M-15.625 7.375 C-18.78758144 11.11259625 -18.17988124 15.1444239 -18.203125 19.8046875 C-18.20882507 20.68021271 -18.21452515 21.55573792 -18.22039795 22.45779419 C-18.22985248 24.31218251 -18.23638373 26.16658767 -18.24023438 28.02099609 C-18.24993753 30.85674389 -18.28095525 33.69176622 -18.3125 36.52734375 C-18.31903029 38.32812069 -18.32428066 40.12890282 -18.328125 41.9296875 C-18.3404718 42.77771942 -18.3528186 43.62575134 -18.36553955 44.4994812 C-18.35220427 48.02791724 -18.33017498 50.37290942 -16.66699219 53.53173828 C-14.98214425 55.26800893 -14.98214425 55.26800893 -12 55.5625 C-8.90301613 55.31082264 -8.90301613 55.31082264 -7.34179688 53.01757812 C-5.54727601 48.98186527 -5.53233476 45.52720083 -5.53125 41.15625 C-5.52363647 40.30953735 -5.51602295 39.46282471 -5.50817871 38.5904541 C-5.49740239 36.80528708 -5.49451456 35.02005714 -5.49902344 33.23486328 C-5.49999701 30.50837024 -5.45832516 27.78468169 -5.4140625 25.05859375 C-5.40885592 23.32031835 -5.4061673 21.5820332 -5.40625 19.84375 C-5.38985474 19.03216431 -5.37345947 18.22057861 -5.35656738 17.38439941 C-5.40870876 13.10180886 -5.64684235 11.45884074 -8.34960938 7.94726562 C-11.2262674 5.83375932 -12.71942952 4.91644036 -15.625 7.375 Z " fill="#000000" transform="translate(364,21)"/>
<path d="M0 0 C3.99580887 4.20611459 5.14168286 7.40277852 5.125 13.125 C5.12886719 14.45917969 5.12886719 14.45917969 5.1328125 15.8203125 C5 18 5 18 4 19 C0.99668982 19.14193337 -1.99217134 19.04236378 -5 19 C-5.66 15.7 -6.32 12.4 -7 9 C-11.88214887 7.41074435 -11.88214887 7.41074435 -15 10 C-15.44279617 11.91688798 -15.44279617 11.91688798 -15.35644531 14.14257812 C-15.35944641 14.99686401 -15.36244751 15.8511499 -15.36553955 16.73132324 C-15.35319275 17.65529907 -15.34084595 18.5792749 -15.328125 19.53125 C-15.32625183 20.47810669 -15.32437866 21.42496338 -15.32244873 22.4005127 C-15.31571925 24.40457677 -15.30178708 26.40862751 -15.28125 28.41259766 C-15.25012725 31.48742824 -15.24028367 34.56174637 -15.234375 37.63671875 C-15.22520398 39.58073544 -15.21482789 41.5247469 -15.203125 43.46875 C-15.19675018 44.85471375 -15.19675018 44.85471375 -15.19024658 46.26867676 C-15.18063904 47.12296265 -15.17103149 47.97724854 -15.16113281 48.85742188 C-15.15089081 49.987547 -15.15089081 49.987547 -15.14044189 51.14050293 C-15.11092623 53.09363265 -15.11092623 53.09363265 -14 55 C-12.02 55 -10.04 55 -8 55 C-5.84940691 51.46813168 -5.6202272 48.33712007 -5.375 44.25 C-5.30023437 43.07953125 -5.22546875 41.9090625 -5.1484375 40.703125 C-5.09945313 39.81109375 -5.05046875 38.9190625 -5 38 C-6.98 38 -8.96 38 -11 38 C-11 34.7 -11 31.4 -11 28 C-5.72 28 -0.44 28 5 28 C5.10815494 32.52147739 5.18740975 37.04035459 5.25 41.5625 C5.28351562 42.83931641 5.31703125 44.11613281 5.3515625 45.43164062 C5.4248603 52.48655383 5.44265304 57.35750636 1 63 C-3.63082254 66.58888747 -8.46361812 66.35493141 -14.09765625 66.3984375 C-18.65400675 65.77293582 -21.21594048 63.87117725 -24.25 60.5 C-26.61965383 57.11478024 -27.12627911 54.57741306 -27.16113281 50.54785156 C-27.17074036 49.64971741 -27.1803479 48.75158325 -27.19024658 47.82623291 C-27.19449646 46.8574823 -27.19874634 45.88873169 -27.203125 44.890625 C-27.20882507 43.89045349 -27.21452515 42.89028198 -27.22039795 41.85980225 C-27.22984744 39.74150653 -27.23638173 37.62319611 -27.24023438 35.50488281 C-27.24992071 32.27642877 -27.28093699 29.0486166 -27.3125 25.8203125 C-27.31903222 23.76042044 -27.32428183 21.70052383 -27.328125 19.640625 C-27.3404718 18.67997131 -27.3528186 17.71931763 -27.36553955 16.72955322 C-27.34677571 11.03529409 -26.74758911 7.02327033 -24 2 C-17.08102149 -4.74156881 -8.21375227 -4.58074646 0 0 Z " fill="#000000" transform="translate(33,20)"/>
<path d="M0 0 C4.62 0 9.24 0 14 0 C15.43688175 8.29229459 16.87164382 16.58494734 18.30266571 24.87825489 C18.96721248 28.72904522 19.63269118 32.57966967 20.30029297 36.42993164 C20.94438666 40.14481819 21.58604108 43.86011849 22.22599792 47.57571983 C22.47072812 48.99405654 22.71634069 50.41224129 22.96284485 51.83027077 C23.30763524 53.81458549 23.64901389 55.79949211 23.99023438 57.78442383 C24.18564819 58.91471512 24.38106201 60.04500641 24.58239746 61.20954895 C25 64 25 64 25 67 C21.37 67 17.74 67 14 67 C12.75408309 61.86059274 11.72711496 57.3212582 12 52 C8.37 52 4.74 52 1 52 C0.93941406 52.99902344 0.87882813 53.99804688 0.81640625 55.02734375 C0.73261719 56.31769531 0.64882812 57.60804687 0.5625 58.9375 C0.48128906 60.22527344 0.40007812 61.51304688 0.31640625 62.83984375 C0 66 0 66 -1 67 C-2.85287502 67.07226502 -4.70833878 67.0838122 -6.5625 67.0625 C-8.08037109 67.04896484 -8.08037109 67.04896484 -9.62890625 67.03515625 C-10.41136719 67.02355469 -11.19382813 67.01195313 -12 67 C-9.09189085 49.4534543 -6.17671825 31.9079363 -3.1875 14.375 C-2.9810083 13.15014893 -2.7745166 11.92529785 -2.56176758 10.66333008 C-2.36993896 9.54466553 -2.17811035 8.42600098 -1.98046875 7.2734375 C-1.81442139 6.29810059 -1.64837402 5.32276367 -1.47729492 4.31787109 C-1 2 -1 2 0 0 Z M6 17 C5.49538375 20.41600147 4.99711424 23.8328994 4.5 27.25 C4.35691406 28.21808594 4.21382812 29.18617187 4.06640625 30.18359375 C3.93105469 31.11816406 3.79570312 32.05273438 3.65625 33.015625 C3.53056641 33.87446289 3.40488281 34.73330078 3.27539062 35.61816406 C2.92342934 38.26263751 2.92342934 38.26263751 3 42 C5.31 42 7.62 42 10 42 C9.68889371 39.14567529 9.37615574 36.29154475 9.0625 33.4375 C8.97548828 32.63763672 8.88847656 31.83777344 8.79882812 31.01367188 C8.28238548 26.32743303 7.69478469 21.66319454 7 17 C6.67 17 6.34 17 6 17 Z " fill="#000000" transform="translate(235,18)"/>
<path d="M0 0 C4.36791318 4.59780335 5.12936166 7.96936532 5.0625 14.1875 C5.05347656 15.27417969 5.04445312 16.36085938 5.03515625 17.48046875 C5.02355469 18.31191406 5.01195312 19.14335938 5 20 C1.7 20 -1.6 20 -5 20 C-5.66 16.37 -6.32 12.74 -7 9 C-11.64191446 7.46090061 -11.64191446 7.46090061 -13.78923035 9.18395996 C-15.22839789 11.34257524 -15.3745916 12.47840051 -15.37231445 15.05664062 C-15.37854324 15.86758179 -15.38477203 16.67852295 -15.39118958 17.51403809 C-15.38197983 18.38596802 -15.37277008 19.25789795 -15.36328125 20.15625 C-15.36377975 21.05492798 -15.36427826 21.95360596 -15.36479187 22.8795166 C-15.36245175 24.77923799 -15.35272688 26.6789625 -15.33618164 28.57861328 C-15.31259007 31.48888836 -15.315621 34.39824736 -15.32226562 37.30859375 C-15.3166888 39.1536513 -15.3095789 40.99870499 -15.30078125 42.84375 C-15.30169266 43.71567993 -15.30260406 44.58760986 -15.30354309 45.48596191 C-15.29401108 46.29690308 -15.28447906 47.10784424 -15.2746582 47.94335938 C-15.27005081 48.65600952 -15.26544342 49.36865967 -15.26069641 50.10290527 C-15.09522515 52.32977834 -15.09522515 52.32977834 -13 55 C-10.41619823 55.25030977 -10.41619823 55.25030977 -8 55 C-6.20724134 51.88089144 -5.65709282 49.32317572 -5.375 45.75 C-5.30023438 44.85796875 -5.22546875 43.9659375 -5.1484375 43.046875 C-5.09945312 42.37140625 -5.05046875 41.6959375 -5 41 C2.75 40.875 2.75 40.875 5 42 C5.76669653 57.35522779 5.76669653 57.35522779 1 63 C-4.22557496 67.04982059 -10.67566635 66.78078193 -17 66 C-21.53861925 63.85012772 -23.85253931 61.52096988 -26 57 C-26.83275046 54.20936298 -27.12979092 51.70840825 -27.14526367 48.80151367 C-27.15483345 47.57455025 -27.15483345 47.57455025 -27.16459656 46.32279968 C-27.16570938 45.44670547 -27.1668222 44.57061127 -27.16796875 43.66796875 C-27.17129715 42.75799637 -27.17462555 41.84802399 -27.17805481 40.91047668 C-27.18311276 38.9864655 -27.18546348 37.06244556 -27.18530273 35.13842773 C-27.18748423 32.20867277 -27.20563822 29.27929751 -27.22460938 26.34960938 C-27.2275446 24.47656378 -27.22952853 22.60351641 -27.23046875 20.73046875 C-27.23765427 19.86044724 -27.24483978 18.99042572 -27.25224304 18.09403992 C-27.22842682 11.68887866 -26.89999306 6.31080236 -22.6875 1.1875 C-15.5796833 -4.5979322 -7.83501889 -4.36952977 0 0 Z " fill="#000000" transform="translate(171,20)"/>
<path d="M0 0 C20 0 20 0 28 4 C33.41953272 11.04539253 32.8379948 19.51530265 32 28 C31.03054632 32.14441449 29.62411122 34.72417448 26.26953125 37.359375 C20.78085416 40.55836444 18.11872887 40 11 40 C11 48.91 11 57.82 11 67 C7.37 67 3.74 67 0 67 C0 44.89 0 22.78 0 0 Z M11 10 C11 16.6 11 23.2 11 30 C14.96 29.505 14.96 29.505 19 29 C21.27947698 25.58078453 21.32513105 24.09689823 21.375 20.0625 C21.40335938 19.02222656 21.43171875 17.98195313 21.4609375 16.91015625 C21.20423389 13.92720472 21.20423389 13.92720472 19.3515625 11.62109375 C16.65270781 9.43242685 16.65270781 9.43242685 11 10 Z " fill="#000000" transform="translate(47,18)"/>
<path d="M0 0 C10.89 0 21.78 0 33 0 C33 3.3 33 6.6 33 10 C29.37 10 25.74 10 22 10 C22 28.81 22 47.62 22 67 C18.37 67 14.74 67 11 67 C11 48.19 11 29.38 11 10 C7.37 10 3.74 10 0 10 C0 6.7 0 3.4 0 0 Z " fill="#000000" transform="translate(81,18)"/>
<path d="M0 0 C10.56 0 21.12 0 32 0 C32 3.3 32 6.6 32 10 C28.7 10 25.4 10 22 10 C22 28.81 22 47.62 22 67 C18.37 67 14.74 67 11 67 C11 48.19 11 29.38 11 10 C7.37 10 3.74 10 0 10 C0 6.7 0 3.4 0 0 Z " fill="#000000" transform="translate(373,18)"/>
<path d="M0 0 C10.56 0 21.12 0 32 0 C32 3.3 32 6.6 32 10 C28.37 10 24.74 10 21 10 C21 28.81 21 47.62 21 67 C17.37 67 13.74 67 10 67 C10 48.19 10 29.38 10 10 C6.7 10 3.4 10 0 10 C0 6.7 0 3.4 0 0 Z " fill="#000000" transform="translate(259,18)"/>
<path d="M0 0 C0.94552734 -0.00322266 1.89105469 -0.00644531 2.86523438 -0.00976562 C11.1366912 0.05453545 11.1366912 0.05453545 14.4375 2.3125 C15.3125 5.8125 15.3125 5.8125 15.4375 9.3125 C13.4375 11.3125 13.4375 11.3125 10.76367188 11.55541992 C9.65572266 11.55131104 8.54777344 11.54720215 7.40625 11.54296875 C5.60220703 11.54006836 5.60220703 11.54006836 3.76171875 11.53710938 C1.86873047 11.51874023 1.86873047 11.51874023 -0.0625 11.5 C-1.95548828 11.4990332 -1.95548828 11.4990332 -3.88671875 11.49804688 C-13.28203632 11.45273184 -13.28203632 11.45273184 -15.5625 10.3125 C-15.875 7 -15.875 7 -15.5625 3.3125 C-11.11618483 -0.77885724 -5.67203848 -0.09705747 0 0 Z " fill="#252B2B" transform="translate(452.5625,37.6875)"/>
<path d="M0 0 C0.99 1.485 0.99 1.485 2 3 C3.20232696 4.7451444 3.20232696 4.7451444 5 6 C7.75627175 6.44687797 7.75627175 6.44687797 10.875 6.36328125 C12.02484375 6.36263672 13.1746875 6.36199219 14.359375 6.36132812 C15.56078125 6.34521484 16.7621875 6.32910156 18 6.3125 C19.20140625 6.31572266 20.4028125 6.31894531 21.640625 6.32226562 C28.19285027 6.52839359 28.19285027 6.52839359 34 4 C34.66 3.01 35.32 2.02 36 1 C36.59713729 8.04622007 36.59713729 8.04622007 34.29296875 11.7265625 C29.93332793 15.72322171 23.52858304 14.75721349 18 14.6875 C16.824375 14.71521484 15.64875 14.74292969 14.4375 14.77148438 C6.16396971 14.74798003 6.16396971 14.74798003 3.08520508 12.76953125 C1.14219212 10.59969003 0.10589932 8.50662235 -0.48828125 5.6640625 C-0.32552083 3.77604167 -0.16276042 1.88802083 0 0 Z " fill="#E8EFF1" transform="translate(434,43)"/>
<path d="M0 0 C6.93 0 13.86 0 21 0 C21 3.3 21 6.6 21 10 C14.07 10 7.14 10 0 10 C0 6.7 0 3.4 0 0 Z " fill="#000000" transform="translate(116,47)"/>
<path d="M0 0 C3.125 2.1875 3.125 2.1875 5 5 C5.07475629 8.13976434 4.48678044 9.41180697 2.5 11.8125 C-2.11441408 14.00434669 -7.23070671 13.58976443 -12 12 C-13.68428945 9.64199477 -14.01684287 8.34527891 -13.875 5.4375 C-11.62363512 -0.83415931 -5.88721919 -1.11888535 0 0 Z " fill="#E3ECEE" transform="translate(492,39)"/>
<path d="M0 0 C6.6 0 13.2 0 20 0 C19.01 0.66 18.02 1.32 17 2 C17.495 2.433125 17.99 2.86625 18.5 3.3125 C20 5 20 5 20 8 C22.97 8 25.94 8 29 8 C29 8.33 29 8.66 29 9 C16.79 9 4.58 9 -8 9 C-8 8.67 -8 8.34 -8 8 C-5.36 8 -2.72 8 0 8 C0.309375 7.195625 0.61875 6.39125 0.9375 5.5625 C2 3 2 3 3 2 C2.01 1.34 1.02 0.68 0 0 Z " fill="#D4EFF0" transform="translate(442,57)"/>
<path d="M0 0 C0.721875 0.144375 1.44375 0.28875 2.1875 0.4375 C3.5796875 0.7159375 3.5796875 0.7159375 5 1 C5.886875 1.226875 6.77375 1.45375 7.6875 1.6875 C8.8321875 1.8421875 8.8321875 1.8421875 10 2 C10.66 1.34 11.32 0.68 12 0 C14.625 -0.125 14.625 -0.125 17 0 C17.33 0.66 17.66 1.32 18 2 C20.52733235 2.65555119 20.52733235 2.65555119 23 3 C23.33 2.01 23.66 1.02 24 0 C25.65 0 27.3 0 29 0 C28.67 1.65 28.34 3.3 28 5 C19.09 5 10.18 5 1 5 C0.67 3.35 0.34 1.7 0 0 Z " fill="#070A0A" transform="translate(438,44)"/>
<path d="M0 0 C0.94552734 -0.00322266 1.89105469 -0.00644531 2.86523438 -0.00976562 C11.17305726 0.05481816 11.17305726 0.05481816 14.4375 2.3125 C15.1875 5.9375 15.1875 5.9375 15.4375 9.3125 C15.1075 8.3225 14.7775 7.3325 14.4375 6.3125 C12.7875 6.3125 11.1375 6.3125 9.4375 6.3125 C9.1075 4.6625 8.7775 3.0125 8.4375 1.3125 C2.4975 1.6425 -3.4425 1.9725 -9.5625 2.3125 C-9.8925 3.6325 -10.2225 4.9525 -10.5625 6.3125 C-11.8825 6.3125 -13.2025 6.3125 -14.5625 6.3125 C-14.2325 7.6325 -13.9025 8.9525 -13.5625 10.3125 C-14.2225 10.3125 -14.8825 10.3125 -15.5625 10.3125 C-15.875 7 -15.875 7 -15.5625 3.3125 C-11.11618483 -0.77885724 -5.67203848 -0.09705747 0 0 Z " fill="#313131" transform="translate(452.5625,37.6875)"/>
<path d="M0 0 C2.5625 1.5625 2.5625 1.5625 4 4 C4.70476018 8.93332128 4.77041398 10.84437903 2 15 C-2.02979465 17.68652977 -4.23934031 17.40344574 -9 17 C-9 16.67 -9 16.34 -9 16 C-8.37351562 15.81824219 -7.74703125 15.63648437 -7.1015625 15.44921875 C-6.28429687 15.19785156 -5.46703125 14.94648437 -4.625 14.6875 C-3.40683594 14.32205078 -3.40683594 14.32205078 -2.1640625 13.94921875 C0.33184629 13.08631815 0.33184629 13.08631815 2 10 C1.91666667 7.41666667 1.91666667 7.41666667 1 5 C-3.02743661 2.31504226 -6.26867516 2.42826372 -11 3 C-13.97984167 4.33170309 -13.97984167 4.33170309 -16 6 C-15.01946718 3.41495894 -14.02862665 2.02515675 -11.9375 0.1875 C-7.74719336 -1.50645375 -4.32474209 -1.16187101 0 0 Z " fill="#4D5050" transform="translate(494,37)"/>
<path d="M0 0 C-2.61815739 2.61815739 -4.50468338 2.26112488 -8.07226562 2.2734375 C-9.24305664 2.26183594 -9.24305664 2.26183594 -10.4375 2.25 C-11.60249023 2.26160156 -11.60249023 2.26160156 -12.79101562 2.2734375 C-16.70052168 2.25996806 -18.67947032 2.21368645 -22 0 C-14.11567307 -2.62810898 -7.88432693 -2.62810898 0 0 Z " fill="#D9E5E7" transform="translate(463,32)"/>
<path d="M0 0 C6.6 0 13.2 0 20 0 C18.02 0.99 18.02 0.99 16 2 C16 2.66 16 3.32 16 4 C13.24075815 5.80411967 12.11027897 6.0127245 8.75 5.625 C7.8425 5.41875 6.935 5.2125 6 5 C5.67 4.01 5.34 3.02 5 2 C3.35 1.67 1.7 1.34 0 1 C0 0.67 0 0.34 0 0 Z " fill="#9E9FA1" transform="translate(442,49)"/>
<path d="M0 0 C1.67542976 0.28604898 3.34385343 0.61781233 5 1 C5.625 2.875 5.625 2.875 6 5 C5.34 5.66 4.68 6.32 4 7 C1.375 6.625 1.375 6.625 -1 6 C-1.042721 4.33388095 -1.04063832 2.66617115 -1 1 C-0.67 0.67 -0.34 0.34 0 0 Z " fill="#CFD3D6" transform="translate(450,75)"/>
<path d="M0 0 C2.125 0.375 2.125 0.375 4 1 C5.125 4.75 5.125 4.75 4 7 C2.35 7 0.7 7 -1 7 C-1.625 4.625 -1.625 4.625 -2 2 C-1.34 1.34 -0.68 0.68 0 0 Z " fill="#1B6B6E" transform="translate(457,40)"/>
<path d="M0 0 C2.125 0.375 2.125 0.375 4 1 C3.67 2.32 3.34 3.64 3 5 C1.68 5 0.36 5 -1 5 C-0.67 6.32 -0.34 7.64 0 9 C-0.66 9 -1.32 9 -2 9 C-2.125 5.625 -2.125 5.625 -2 2 C-1.34 1.34 -0.68 0.68 0 0 Z " fill="#272727" transform="translate(439,39)"/>
<path d="M0 0 C-2 2 -2 2 -4.3828125 2.1953125 C-5.28773438 2.17210937 -6.19265625 2.14890625 -7.125 2.125 C-8.49011719 2.09792969 -8.49011719 2.09792969 -9.8828125 2.0703125 C-10.58148438 2.04710937 -11.28015625 2.02390625 -12 2 C-11 0 -11 0 -9.375 -0.6875 C-6.12574921 -1.115033 -3.21226196 -0.55596842 0 0 Z " fill="#E3EEF0" transform="translate(463,32)"/>
<path d="M0 0 C3.55780196 0.60990891 6.6828589 1.5783681 10 3 C10 3.33 10 3.66 10 4 C6.04 3.67 2.08 3.34 -2 3 C-1.34 2.01 -0.68 1.02 0 0 Z " fill="#030203" transform="translate(451,45)"/>
<path d="M0 0 C0 1.65 0 3.3 0 5 C-1.65 5.33 -3.3 5.66 -5 6 C-5 5.01 -5 4.02 -5 3 C-4.01 3.33 -3.02 3.66 -2 4 C-1.67 3.01 -1.34 2.02 -1 1 C-1.66 1 -2.32 1 -3 1 C-3.33 1.66 -3.66 2.32 -4 3 C-4.66 2.67 -5.32 2.34 -6 2 C-6 1.34 -6 0.68 -6 0 C-3.50907189 -1.24546405 -2.58919267 -0.7767578 0 0 Z " fill="#23959A" transform="translate(449,41)"/>
<path d="M0 0 C0.99 0.33 1.98 0.66 3 1 C2.01 1.33 1.02 1.66 0 2 C1.65 2.33 3.3 2.66 5 3 C4.67 4.32 4.34 5.64 4 7 C2.35 6.67 0.7 6.34 -1 6 C-1.042721 4.33388095 -1.04063832 2.66617115 -1 1 C-0.67 0.67 -0.34 0.34 0 0 Z " fill="#182F2F" transform="translate(443,39)"/>
<path d="M0 0 C0 0.66 0 1.32 0 2 C-3.08888522 4.05925681 -3.70935927 4.2390374 -7.1875 4.125 C-9.0746875 4.063125 -9.0746875 4.063125 -11 4 C-11 3.67 -11 3.34 -11 3 C-9.54293274 2.49632243 -8.08429904 1.99717444 -6.625 1.5 C-5.81289063 1.2215625 -5.00078125 0.943125 -4.1640625 0.65625 C-2 0 -2 0 0 0 Z " fill="#37393A" transform="translate(496,50)"/>
<path d="" fill="#848E8E" transform="translate(0,0)"/>
</svg>
