<?xml version="1.0" encoding="UTF-8"?>
<svg xmlns="http://www.w3.org/2000/svg" xmlns:xlink="http://www.w3.org/1999/xlink" width="140px" height="28px" viewBox="0 0 140 28" version="1.1">
<g id="surface1">
<path style=" stroke:none;fill-rule:nonzero;fill:rgb(45.490196%,66.666667%,61.176471%);fill-opacity:1;" d="M 131.09375 5.828125 C 131.257812 5.9375 131.425781 6.046875 131.597656 6.160156 C 131.859375 6.304688 131.859375 6.304688 132.125 6.457031 C 133.199219 7.121094 133.753906 7.820312 134.402344 8.90625 C 134.785156 9.566406 134.785156 9.566406 135.238281 10.078125 C 136.230469 10.242188 136.230469 10.242188 137.199219 10.078125 C 138.140625 10.355469 138.90625 10.632812 139.441406 11.480469 C 139.617188 12.859375 139.65625 13.40625 138.863281 14.558594 C 137.859375 15.246094 137.269531 15.238281 136.078125 15.117188 C 136.070312 15.273438 136.066406 15.429688 136.058594 15.59375 C 135.875 18.105469 134.875 20.125 133 21.839844 C 132.816406 21.839844 132.628906 21.839844 132.441406 21.839844 C 132.445312 22.03125 132.453125 22.222656 132.460938 22.421875 C 132.464844 22.675781 132.46875 22.925781 132.472656 23.1875 C 132.484375 23.4375 132.488281 23.6875 132.496094 23.945312 C 132.441406 24.640625 132.441406 24.640625 131.882812 25.480469 C 131.09375 25.5625 130.375 25.597656 129.589844 25.589844 C 129.359375 25.59375 129.132812 25.59375 128.898438 25.59375 C 128.417969 25.59375 127.9375 25.59375 127.457031 25.589844 C 126.71875 25.585938 125.988281 25.589844 125.25 25.59375 C 124.785156 25.59375 124.316406 25.59375 123.851562 25.589844 C 123.628906 25.59375 123.410156 25.59375 123.179688 25.597656 C 121.660156 25.578125 121.660156 25.578125 120.960938 25.09375 C 120.578125 24.476562 120.585938 24 120.574219 23.277344 C 120.488281 22.078125 120.488281 22.078125 119.769531 21.105469 C 119.515625 20.886719 119.261719 20.667969 119 20.441406 C 117.226562 18.117188 116.789062 15.765625 117.039062 12.882812 C 117.546875 9.996094 119.144531 7.832031 121.519531 6.160156 C 124.035156 4.414062 128.429688 4.328125 131.09375 5.828125 Z M 126.28125 6.441406 C 126.28125 6.71875 126.28125 6.996094 126.28125 7.28125 C 126.554688 7.1875 126.832031 7.097656 127.117188 7 C 127.027344 6.816406 126.933594 6.628906 126.839844 6.441406 C 126.65625 6.441406 126.472656 6.441406 126.28125 6.441406 Z M 122.078125 10.359375 C 121.660156 11.203125 121.75 11.953125 121.800781 12.882812 C 121.988281 13.066406 122.167969 13.25 122.359375 13.441406 C 122.382812 13.128906 122.40625 12.816406 122.429688 12.492188 C 122.640625 11.480469 122.640625 11.480469 123.125 11.140625 C 123.832031 10.894531 124.378906 10.851562 125.125 10.851562 C 125.511719 10.859375 125.511719 10.859375 125.90625 10.859375 C 126.175781 10.863281 126.441406 10.867188 126.71875 10.867188 C 126.984375 10.867188 127.253906 10.867188 127.53125 10.867188 C 129.519531 10.878906 129.519531 10.878906 130.480469 11.199219 C 130.8125 12.199219 130.8125 12.199219 131.039062 13.160156 C 131.414062 12.710938 131.414062 12.710938 131.597656 12.039062 C 131.230469 10.921875 130.867188 9.96875 129.921875 9.238281 C 128.867188 9.0625 127.800781 9.113281 126.734375 9.117188 C 126.441406 9.113281 126.152344 9.109375 125.851562 9.097656 C 123.726562 9.09375 123.726562 9.09375 122.078125 10.359375 Z M 122.078125 10.359375 "/>
<path style=" stroke:none;fill-rule:nonzero;fill:rgb(92.156863%,93.72549%,94.901961%);fill-opacity:1;" d="M 125.117188 10.566406 C 125.375 10.5625 125.628906 10.5625 125.894531 10.5625 C 126.292969 10.566406 126.292969 10.566406 126.699219 10.570312 C 126.96875 10.566406 127.234375 10.566406 127.507812 10.5625 C 127.894531 10.5625 127.894531 10.5625 128.285156 10.566406 C 128.515625 10.566406 128.75 10.566406 128.992188 10.566406 C 129.945312 10.671875 130.550781 11.003906 131.25 11.65625 C 131.753906 12.617188 131.820312 13.511719 131.597656 14.558594 C 130.738281 15.726562 129.914062 16.164062 128.519531 16.519531 C 128.660156 16.640625 128.796875 16.765625 128.941406 16.886719 C 129.359375 17.359375 129.359375 17.359375 129.359375 18.199219 C 129.617188 18.1875 129.617188 18.1875 129.882812 18.167969 C 130.109375 18.164062 130.332031 18.15625 130.570312 18.148438 C 130.90625 18.132812 130.90625 18.132812 131.246094 18.117188 C 132.039062 18.21875 132.234375 18.414062 132.71875 19.039062 C 132.796875 19.636719 132.796875 19.636719 132.761719 20.320312 C 132.746094 20.5625 132.734375 20.8125 132.722656 21.0625 C 132.707031 21.320312 132.683594 21.578125 132.667969 21.839844 C 132.65625 22.097656 132.640625 22.355469 132.628906 22.617188 C 132.515625 24.523438 132.515625 24.523438 131.882812 25.480469 C 131.09375 25.5625 130.375 25.597656 129.589844 25.589844 C 129.359375 25.59375 129.132812 25.59375 128.898438 25.59375 C 128.417969 25.59375 127.9375 25.59375 127.457031 25.589844 C 126.71875 25.585938 125.988281 25.589844 125.25 25.59375 C 124.785156 25.59375 124.316406 25.59375 123.851562 25.589844 C 123.519531 25.59375 123.519531 25.59375 123.179688 25.597656 C 121.679688 25.578125 121.679688 25.578125 120.960938 25.136719 C 120.59375 24.488281 120.574219 24.039062 120.570312 23.292969 C 120.570312 23.03125 120.566406 22.769531 120.566406 22.5 C 120.570312 22.234375 120.574219 21.964844 120.574219 21.679688 C 120.574219 21.414062 120.570312 21.140625 120.566406 20.855469 C 120.566406 20.601562 120.570312 20.339844 120.570312 20.070312 C 120.570312 19.835938 120.570312 19.59375 120.574219 19.351562 C 120.625 19.054688 120.625 19.054688 120.679688 18.761719 C 121.546875 18.179688 121.71875 18.132812 122.695312 18.164062 C 123.046875 18.175781 123.394531 18.191406 123.761719 18.199219 C 123.847656 17.976562 123.933594 17.75 124.023438 17.515625 C 124.320312 16.800781 124.320312 16.800781 124.597656 16.519531 C 124.300781 16.410156 123.996094 16.300781 123.691406 16.1875 C 122.65625 15.734375 122.082031 15.292969 121.519531 14.28125 C 121.429688 13.507812 121.464844 12.820312 121.519531 12.039062 C 121.796875 12.457031 121.796875 12.457031 122.078125 12.882812 C 122.152344 12.617188 122.21875 12.347656 122.289062 12.074219 C 122.640625 11.199219 122.640625 11.199219 123.136719 10.871094 C 123.835938 10.613281 124.371094 10.566406 125.117188 10.566406 Z M 125.117188 10.566406 "/>
<path style=" stroke:none;fill-rule:nonzero;fill:rgb(0%,0%,0%);fill-opacity:1;" d="M 83.160156 5.039062 C 88.996094 5.039062 88.996094 5.039062 90.789062 6.335938 C 91.949219 7.914062 91.941406 9.8125 91.695312 11.695312 C 91.523438 12.5 91.234375 13.078125 90.71875 13.71875 C 90.539062 13.8125 90.351562 13.902344 90.160156 14 C 90.378906 14.203125 90.601562 14.402344 90.824219 14.613281 C 92.242188 16.128906 92.222656 17.554688 92.191406 19.554688 C 92.070312 21.085938 91.714844 21.996094 90.5625 23.066406 C 88.027344 24.757812 88.042969 23.800781 83.160156 23.800781 C 83.160156 17.609375 83.160156 11.417969 83.160156 5.039062 Z M 86.238281 7.839844 C 86.238281 9.503906 86.238281 11.164062 86.238281 12.882812 C 87.863281 12.792969 87.863281 12.792969 88.445312 12.007812 C 88.910156 10.816406 88.898438 9.808594 88.601562 8.574219 C 88.082031 7.886719 88.082031 7.886719 86.238281 7.839844 Z M 86.238281 15.679688 C 86.238281 17.4375 86.238281 19.191406 86.238281 21 C 88.070312 21.214844 88.070312 21.214844 88.738281 20.539062 C 89.097656 19.753906 89.152344 19.199219 89.144531 18.339844 C 89.148438 18.078125 89.148438 17.816406 89.152344 17.542969 C 89.019531 16.648438 88.882812 16.273438 88.199219 15.679688 C 87.554688 15.679688 86.90625 15.679688 86.238281 15.679688 Z M 86.238281 15.679688 "/>
<path style=" stroke:none;fill-rule:nonzero;fill:rgb(0%,0%,0%);fill-opacity:1;" d="M 51.519531 5.039062 C 52.539062 5.039062 53.550781 5.039062 54.597656 5.039062 C 54.597656 7.625 54.597656 10.214844 54.597656 12.882812 C 55.617188 12.882812 56.632812 12.882812 57.679688 12.882812 C 57.679688 10.292969 57.679688 7.707031 57.679688 5.039062 C 58.695312 5.039062 59.714844 5.039062 60.761719 5.039062 C 60.761719 11.230469 60.761719 17.421875 60.761719 23.800781 C 59.742188 23.800781 58.726562 23.800781 57.679688 23.800781 C 57.679688 21.121094 57.679688 18.441406 57.679688 15.679688 C 56.664062 15.679688 55.648438 15.679688 54.597656 15.679688 C 54.597656 18.359375 54.597656 21.039062 54.597656 23.800781 C 53.585938 23.800781 52.566406 23.800781 51.519531 23.800781 C 51.519531 17.609375 51.519531 11.417969 51.519531 5.039062 Z M 51.519531 5.039062 "/>
<path style=" stroke:none;fill-rule:nonzero;fill:rgb(0%,0%,0%);fill-opacity:1;" d="M 101.921875 5.882812 C 103.398438 7.617188 103.363281 9.46875 103.375 11.644531 C 103.378906 11.871094 103.378906 12.097656 103.378906 12.335938 C 103.382812 12.8125 103.382812 13.292969 103.390625 13.773438 C 103.390625 14.5 103.398438 15.226562 103.40625 15.960938 C 103.410156 16.425781 103.410156 16.898438 103.410156 17.367188 C 103.414062 17.578125 103.417969 17.792969 103.421875 18.015625 C 103.414062 19.84375 103.09375 21.625 101.9375 23.082031 C 100.347656 24.289062 98.828125 24.285156 96.882812 24.078125 C 95.800781 23.730469 95.101562 23.191406 94.394531 22.296875 C 93.726562 20.730469 93.75 19.089844 93.742188 17.414062 C 93.742188 17.179688 93.738281 16.949219 93.738281 16.703125 C 93.734375 16.210938 93.734375 15.71875 93.734375 15.222656 C 93.730469 14.480469 93.722656 13.730469 93.714844 12.980469 C 93.710938 12.5 93.710938 12.019531 93.710938 11.535156 C 93.703125 11.316406 93.699219 11.09375 93.695312 10.867188 C 93.703125 9.183594 93.898438 7.316406 95.027344 5.980469 C 97.082031 4.175781 99.757812 4.328125 101.921875 5.882812 Z M 97.546875 7.945312 C 96.65625 8.988281 96.832031 10.121094 96.820312 11.425781 C 96.820312 11.667969 96.816406 11.917969 96.816406 12.171875 C 96.8125 12.6875 96.8125 13.203125 96.8125 13.726562 C 96.808594 14.523438 96.800781 15.3125 96.792969 16.109375 C 96.792969 16.613281 96.789062 17.117188 96.789062 17.621094 C 96.785156 17.859375 96.78125 18.09375 96.777344 18.339844 C 96.78125 19.324219 96.789062 19.984375 97.25 20.871094 C 97.726562 21.351562 97.726562 21.351562 98.558594 21.4375 C 99.425781 21.367188 99.425781 21.367188 99.863281 20.726562 C 100.367188 19.59375 100.371094 18.628906 100.371094 17.402344 C 100.371094 17.167969 100.375 16.929688 100.375 16.683594 C 100.382812 16.1875 100.382812 15.6875 100.382812 15.1875 C 100.382812 14.421875 100.394531 13.660156 100.402344 12.898438 C 100.40625 12.410156 100.40625 11.921875 100.40625 11.4375 C 100.410156 11.210938 100.414062 10.984375 100.417969 10.75 C 100.40625 9.550781 100.339844 9.085938 99.582031 8.105469 C 98.777344 7.511719 98.359375 7.257812 97.546875 7.945312 Z M 97.546875 7.945312 "/>
<path style=" stroke:none;fill-rule:nonzero;fill:rgb(0%,0%,0%);fill-opacity:1;" d="M 9.238281 5.597656 C 10.355469 6.777344 10.679688 7.671875 10.675781 9.277344 C 10.675781 9.648438 10.675781 9.648438 10.675781 10.027344 C 10.640625 10.640625 10.640625 10.640625 10.359375 10.921875 C 9.519531 10.957031 8.683594 10.933594 7.839844 10.921875 C 7.65625 9.996094 7.472656 9.074219 7.28125 8.117188 C 5.914062 7.671875 5.914062 7.671875 5.039062 8.402344 C 4.917969 8.933594 4.917969 8.933594 4.9375 9.5625 C 4.9375 9.796875 4.9375 10.039062 4.9375 10.285156 C 4.941406 10.542969 4.941406 10.804688 4.945312 11.066406 C 4.945312 11.332031 4.945312 11.597656 4.953125 11.871094 C 4.953125 12.433594 4.957031 12.996094 4.960938 13.554688 C 4.96875 14.417969 4.972656 15.277344 4.972656 16.136719 C 4.976562 16.683594 4.980469 17.226562 4.984375 17.769531 C 4.984375 18.160156 4.984375 18.160156 4.984375 18.554688 C 4.988281 18.796875 4.992188 19.035156 4.992188 19.28125 C 4.996094 19.59375 4.996094 19.59375 5 19.917969 C 5.011719 20.464844 5.011719 20.464844 5.320312 21 C 5.871094 21 6.429688 21 7 21 C 7.601562 20.011719 7.664062 19.136719 7.734375 17.988281 C 7.757812 17.664062 7.777344 17.335938 7.800781 16.996094 C 7.8125 16.746094 7.824219 16.5 7.839844 16.238281 C 7.285156 16.238281 6.730469 16.238281 6.160156 16.238281 C 6.160156 15.316406 6.160156 14.390625 6.160156 13.441406 C 7.640625 13.441406 9.117188 13.441406 10.640625 13.441406 C 10.667969 14.707031 10.695312 15.972656 10.710938 17.238281 C 10.71875 17.597656 10.726562 17.953125 10.738281 18.320312 C 10.761719 20.296875 10.765625 21.660156 9.519531 23.238281 C 8.222656 24.242188 6.871094 24.179688 5.292969 24.191406 C 4.015625 24.015625 3.296875 23.480469 2.449219 22.539062 C 1.789062 21.59375 1.644531 20.882812 1.636719 19.753906 C 1.632812 19.503906 1.628906 19.25 1.628906 18.992188 C 1.625 18.71875 1.625 18.449219 1.625 18.167969 C 1.621094 17.890625 1.621094 17.609375 1.621094 17.320312 C 1.617188 16.726562 1.617188 16.132812 1.609375 15.539062 C 1.609375 14.640625 1.601562 13.734375 1.59375 12.832031 C 1.589844 12.253906 1.589844 11.679688 1.589844 11.097656 C 1.585938 10.832031 1.582031 10.5625 1.578125 10.285156 C 1.582031 8.691406 1.75 7.566406 2.519531 6.160156 C 4.460938 4.273438 6.941406 4.316406 9.238281 5.597656 Z M 9.238281 5.597656 "/>
<path style=" stroke:none;fill-rule:nonzero;fill:rgb(0%,0%,0%);fill-opacity:1;" d="M 65.800781 5.039062 C 67.09375 5.039062 68.390625 5.039062 69.71875 5.039062 C 70.121094 7.363281 70.527344 9.683594 70.925781 12.007812 C 71.109375 13.082031 71.296875 14.164062 71.484375 15.242188 C 71.664062 16.28125 71.84375 17.320312 72.023438 18.363281 C 72.089844 18.757812 72.164062 19.15625 72.230469 19.554688 C 72.328125 20.109375 72.421875 20.664062 72.515625 21.21875 C 72.570312 21.535156 72.625 21.855469 72.683594 22.179688 C 72.800781 22.960938 72.800781 22.960938 72.800781 23.800781 C 71.785156 23.800781 70.765625 23.800781 69.71875 23.800781 C 69.375 22.363281 69.082031 21.089844 69.160156 19.597656 C 68.144531 19.597656 67.125 19.597656 66.078125 19.597656 C 66.0625 19.882812 66.046875 20.160156 66.027344 20.449219 C 66.003906 20.8125 65.984375 21.167969 65.957031 21.542969 C 65.9375 21.90625 65.910156 22.261719 65.890625 22.636719 C 65.800781 23.519531 65.800781 23.519531 65.519531 23.800781 C 65.003906 23.820312 64.480469 23.824219 63.964844 23.820312 C 63.539062 23.8125 63.539062 23.8125 63.105469 23.808594 C 62.886719 23.804688 62.667969 23.800781 62.441406 23.800781 C 63.253906 18.886719 64.070312 13.976562 64.90625 9.066406 C 64.964844 8.71875 65.023438 8.378906 65.082031 8.027344 C 65.136719 7.710938 65.191406 7.398438 65.246094 7.074219 C 65.292969 6.800781 65.339844 6.527344 65.386719 6.246094 C 65.519531 5.597656 65.519531 5.597656 65.800781 5.039062 Z M 67.480469 9.800781 C 67.335938 10.757812 67.199219 11.710938 67.058594 12.671875 C 67.023438 12.941406 66.980469 13.214844 66.9375 13.492188 C 66.898438 13.75 66.863281 14.015625 66.824219 14.285156 C 66.789062 14.527344 66.753906 14.765625 66.71875 15.015625 C 66.617188 15.753906 66.617188 15.753906 66.640625 16.800781 C 67.285156 16.800781 67.933594 16.800781 68.597656 16.800781 C 68.511719 16.003906 68.425781 15.203125 68.339844 14.402344 C 68.3125 14.175781 68.289062 13.953125 68.261719 13.722656 C 68.121094 12.410156 67.957031 11.105469 67.761719 9.800781 C 67.667969 9.800781 67.578125 9.800781 67.480469 9.800781 Z M 67.480469 9.800781 "/>
<path style=" stroke:none;fill-rule:nonzero;fill:rgb(0%,0%,0%);fill-opacity:1;" d="M 47.882812 5.597656 C 49.101562 6.886719 49.316406 7.832031 49.296875 9.574219 C 49.292969 9.878906 49.292969 10.179688 49.289062 10.496094 C 49.285156 10.726562 49.28125 10.957031 49.28125 11.199219 C 48.355469 11.199219 47.429688 11.199219 46.480469 11.199219 C 46.296875 10.183594 46.109375 9.167969 45.921875 8.117188 C 44.621094 7.691406 44.621094 7.691406 44.019531 8.167969 C 43.617188 8.773438 43.574219 9.09375 43.578125 9.8125 C 43.574219 10.042969 43.574219 10.269531 43.570312 10.503906 C 43.574219 10.75 43.578125 10.992188 43.578125 11.246094 C 43.578125 11.496094 43.578125 11.746094 43.578125 12.007812 C 43.578125 12.539062 43.582031 13.070312 43.585938 13.601562 C 43.59375 14.417969 43.589844 15.234375 43.589844 16.042969 C 43.589844 16.5625 43.59375 17.078125 43.59375 17.597656 C 43.59375 17.839844 43.59375 18.085938 43.59375 18.335938 C 43.597656 18.5625 43.597656 18.792969 43.601562 19.023438 C 43.601562 19.226562 43.605469 19.421875 43.605469 19.628906 C 43.652344 20.25 43.652344 20.25 44.238281 21 C 44.960938 21.070312 44.960938 21.070312 45.640625 21 C 46.144531 20.125 46.296875 19.410156 46.375 18.410156 C 46.394531 18.160156 46.417969 17.914062 46.4375 17.652344 C 46.449219 17.460938 46.46875 17.273438 46.480469 17.078125 C 48.652344 17.046875 48.652344 17.046875 49.28125 17.359375 C 49.496094 21.660156 49.496094 21.660156 48.160156 23.238281 C 46.699219 24.375 44.890625 24.296875 43.117188 24.078125 C 41.847656 23.476562 41.199219 22.824219 40.597656 21.558594 C 40.367188 20.777344 40.285156 20.078125 40.28125 19.261719 C 40.273438 18.921875 40.273438 18.921875 40.273438 18.570312 C 40.273438 18.324219 40.273438 18.082031 40.269531 17.828125 C 40.269531 17.570312 40.269531 17.320312 40.269531 17.054688 C 40.265625 16.515625 40.265625 15.976562 40.265625 15.4375 C 40.265625 14.617188 40.261719 13.796875 40.257812 12.976562 C 40.253906 12.453125 40.253906 11.929688 40.253906 11.40625 C 40.253906 11.160156 40.25 10.917969 40.25 10.667969 C 40.253906 8.871094 40.347656 7.367188 41.527344 5.929688 C 43.519531 4.3125 45.683594 4.375 47.882812 5.597656 Z M 47.882812 5.597656 "/>
<path style=" stroke:none;fill-rule:nonzero;fill:rgb(0%,0%,0%);fill-opacity:1;" d="M 13.160156 5.039062 C 18.761719 5.039062 18.761719 5.039062 21 6.160156 C 22.519531 8.132812 22.355469 10.503906 22.117188 12.882812 C 21.851562 14.042969 21.453125 14.761719 20.515625 15.5 C 18.976562 16.398438 18.230469 16.238281 16.238281 16.238281 C 16.238281 18.738281 16.238281 21.230469 16.238281 23.800781 C 15.222656 23.800781 14.207031 23.800781 13.160156 23.800781 C 13.160156 17.609375 13.160156 11.417969 13.160156 5.039062 Z M 16.238281 7.839844 C 16.238281 9.6875 16.238281 11.535156 16.238281 13.441406 C 17.347656 13.300781 17.347656 13.300781 18.480469 13.160156 C 19.121094 12.203125 19.132812 11.789062 19.144531 10.65625 C 19.152344 10.367188 19.160156 10.074219 19.171875 9.777344 C 19.097656 8.9375 19.097656 8.9375 18.578125 8.296875 C 17.824219 7.679688 17.824219 7.679688 16.238281 7.839844 Z M 16.238281 7.839844 "/>
<path style=" stroke:none;fill-rule:nonzero;fill:rgb(0%,0%,0%);fill-opacity:1;" d="M 22.679688 5.039062 C 25.726562 5.039062 28.777344 5.039062 31.921875 5.039062 C 31.921875 5.964844 31.921875 6.886719 31.921875 7.839844 C 30.902344 7.839844 29.890625 7.839844 28.839844 7.839844 C 28.839844 13.109375 28.839844 18.375 28.839844 23.800781 C 27.824219 23.800781 26.804688 23.800781 25.761719 23.800781 C 25.761719 18.535156 25.761719 13.269531 25.761719 7.839844 C 24.742188 7.839844 23.726562 7.839844 22.679688 7.839844 C 22.679688 6.914062 22.679688 5.992188 22.679688 5.039062 Z M 22.679688 5.039062 "/>
<path style=" stroke:none;fill-rule:nonzero;fill:rgb(0%,0%,0%);fill-opacity:1;" d="M 104.441406 5.039062 C 107.398438 5.039062 110.355469 5.039062 113.402344 5.039062 C 113.402344 5.964844 113.402344 6.886719 113.402344 7.839844 C 112.476562 7.839844 111.554688 7.839844 110.597656 7.839844 C 110.597656 13.109375 110.597656 18.375 110.597656 23.800781 C 109.585938 23.800781 108.566406 23.800781 107.519531 23.800781 C 107.519531 18.535156 107.519531 13.269531 107.519531 7.839844 C 106.5 7.839844 105.488281 7.839844 104.441406 7.839844 C 104.441406 6.914062 104.441406 5.992188 104.441406 5.039062 Z M 104.441406 5.039062 "/>
<path style=" stroke:none;fill-rule:nonzero;fill:rgb(0%,0%,0%);fill-opacity:1;" d="M 72.519531 5.039062 C 75.476562 5.039062 78.433594 5.039062 81.480469 5.039062 C 81.480469 5.964844 81.480469 6.886719 81.480469 7.839844 C 80.460938 7.839844 79.449219 7.839844 78.402344 7.839844 C 78.402344 13.109375 78.402344 18.375 78.402344 23.800781 C 77.382812 23.800781 76.367188 23.800781 75.320312 23.800781 C 75.320312 18.535156 75.320312 13.269531 75.320312 7.839844 C 74.394531 7.839844 73.46875 7.839844 72.519531 7.839844 C 72.519531 6.914062 72.519531 5.992188 72.519531 5.039062 Z M 72.519531 5.039062 "/>
<path style=" stroke:none;fill-rule:nonzero;fill:rgb(14.509804%,16.862745%,16.862745%);fill-opacity:1;" d="M 126.71875 10.550781 C 126.980469 10.550781 127.246094 10.550781 127.519531 10.550781 C 129.835938 10.566406 129.835938 10.566406 130.761719 11.199219 C 131.007812 12.179688 131.007812 12.179688 131.039062 13.160156 C 130.480469 13.71875 130.480469 13.71875 129.730469 13.789062 C 129.421875 13.785156 129.109375 13.785156 128.792969 13.785156 C 128.285156 13.785156 128.285156 13.785156 127.769531 13.78125 C 127.242188 13.777344 127.242188 13.777344 126.699219 13.773438 C 126.167969 13.773438 126.167969 13.773438 125.628906 13.773438 C 123 13.761719 123 13.761719 122.359375 13.441406 C 122.273438 12.511719 122.273438 12.511719 122.359375 11.480469 C 123.605469 10.335938 125.128906 10.523438 126.71875 10.550781 Z M 126.71875 10.550781 "/>
<path style=" stroke:none;fill-rule:nonzero;fill:rgb(90.980392%,93.72549%,94.509804%);fill-opacity:1;" d="M 121.519531 12.039062 C 121.796875 12.457031 121.796875 12.457031 122.078125 12.882812 C 122.414062 13.367188 122.414062 13.367188 122.921875 13.71875 C 123.691406 13.84375 123.691406 13.84375 124.566406 13.824219 C 124.886719 13.824219 125.210938 13.824219 125.542969 13.820312 C 125.878906 13.816406 126.214844 13.8125 126.558594 13.804688 C 126.894531 13.804688 127.234375 13.8125 127.578125 13.8125 C 129.414062 13.871094 129.414062 13.871094 131.039062 13.160156 C 131.226562 12.882812 131.410156 12.609375 131.597656 12.320312 C 131.765625 14.292969 131.765625 14.292969 131.125 15.324219 C 129.898438 16.445312 128.109375 16.171875 126.558594 16.152344 C 126.230469 16.164062 125.902344 16.167969 125.5625 16.175781 C 123.246094 16.171875 123.246094 16.171875 122.382812 15.617188 C 121.839844 15.007812 121.550781 14.421875 121.386719 13.625 C 121.425781 13.09375 121.472656 12.570312 121.519531 12.039062 Z M 121.519531 12.039062 "/>
<path style=" stroke:none;fill-rule:nonzero;fill:rgb(0%,0%,0%);fill-opacity:1;" d="M 32.480469 13.160156 C 34.417969 13.160156 36.359375 13.160156 38.359375 13.160156 C 38.359375 14.085938 38.359375 15.007812 38.359375 15.960938 C 36.417969 15.960938 34.476562 15.960938 32.480469 15.960938 C 32.480469 15.035156 32.480469 14.113281 32.480469 13.160156 Z M 32.480469 13.160156 "/>
<path style=" stroke:none;fill-rule:nonzero;fill:rgb(89.019608%,92.54902%,93.333333%);fill-opacity:1;" d="M 137.761719 10.921875 C 138.636719 11.53125 138.636719 11.53125 139.160156 12.320312 C 139.179688 13.199219 139.015625 13.554688 138.460938 14.226562 C 137.167969 14.839844 135.734375 14.722656 134.402344 14.28125 C 133.929688 13.621094 133.835938 13.253906 133.875 12.445312 C 134.507812 10.683594 136.113281 10.605469 137.761719 10.921875 Z M 137.761719 10.921875 "/>
<path style=" stroke:none;fill-rule:nonzero;fill:rgb(83.137255%,93.72549%,94.117647%);fill-opacity:1;" d="M 123.761719 15.960938 C 125.609375 15.960938 127.457031 15.960938 129.359375 15.960938 C 129.082031 16.144531 128.804688 16.332031 128.519531 16.519531 C 128.660156 16.640625 128.796875 16.765625 128.941406 16.886719 C 129.359375 17.359375 129.359375 17.359375 129.359375 18.199219 C 130.191406 18.199219 131.023438 18.199219 131.882812 18.199219 C 131.882812 18.289062 131.882812 18.382812 131.882812 18.480469 C 128.460938 18.480469 125.039062 18.480469 121.519531 18.480469 C 121.519531 18.386719 121.519531 18.296875 121.519531 18.199219 C 122.261719 18.199219 122.996094 18.199219 123.761719 18.199219 C 123.847656 17.976562 123.933594 17.75 124.023438 17.515625 C 124.320312 16.800781 124.320312 16.800781 124.597656 16.519531 C 124.320312 16.335938 124.042969 16.148438 123.761719 15.960938 Z M 123.761719 15.960938 "/>
<path style=" stroke:none;fill-rule:nonzero;fill:rgb(2.745098%,3.921569%,3.921569%);fill-opacity:1;" d="M 122.640625 12.320312 C 122.839844 12.359375 123.042969 12.402344 123.253906 12.445312 C 123.644531 12.519531 123.644531 12.519531 124.039062 12.597656 C 124.289062 12.664062 124.535156 12.726562 124.792969 12.792969 C 125.113281 12.835938 125.113281 12.835938 125.441406 12.882812 C 125.625 12.695312 125.8125 12.511719 126 12.320312 C 126.734375 12.285156 126.734375 12.285156 127.402344 12.320312 C 127.492188 12.507812 127.585938 12.6875 127.679688 12.882812 C 128.390625 13.0625 128.390625 13.0625 129.078125 13.160156 C 129.171875 12.882812 129.265625 12.609375 129.359375 12.320312 C 129.824219 12.320312 130.28125 12.320312 130.761719 12.320312 C 130.667969 12.78125 130.578125 13.242188 130.480469 13.71875 C 127.984375 13.71875 125.492188 13.71875 122.921875 13.71875 C 122.828125 13.257812 122.734375 12.796875 122.640625 12.320312 Z M 122.640625 12.320312 "/>
<path style=" stroke:none;fill-rule:nonzero;fill:rgb(19.215686%,19.215686%,19.215686%);fill-opacity:1;" d="M 126.71875 10.550781 C 126.980469 10.550781 127.246094 10.550781 127.519531 10.550781 C 129.84375 10.566406 129.84375 10.566406 130.761719 11.199219 C 130.96875 12.214844 130.96875 12.214844 131.039062 13.160156 C 130.945312 12.882812 130.855469 12.609375 130.761719 12.320312 C 130.300781 12.320312 129.835938 12.320312 129.359375 12.320312 C 129.269531 11.859375 129.175781 11.394531 129.078125 10.921875 C 127.417969 11.011719 125.75 11.105469 124.039062 11.199219 C 123.945312 11.570312 123.855469 11.9375 123.761719 12.320312 C 123.390625 12.320312 123.023438 12.320312 122.640625 12.320312 C 122.730469 12.6875 122.824219 13.058594 122.921875 13.441406 C 122.734375 13.441406 122.550781 13.441406 122.359375 13.441406 C 122.273438 12.511719 122.273438 12.511719 122.359375 11.480469 C 123.605469 10.335938 125.128906 10.523438 126.71875 10.550781 Z M 126.71875 10.550781 "/>
<path style=" stroke:none;fill-rule:nonzero;fill:rgb(30.196078%,31.372549%,31.372549%);fill-opacity:1;" d="M 138.320312 10.359375 C 139.035156 10.796875 139.035156 10.796875 139.441406 11.480469 C 139.636719 12.859375 139.65625 13.398438 138.882812 14.558594 C 137.753906 15.3125 137.132812 15.234375 135.800781 15.117188 C 135.800781 15.027344 135.800781 14.933594 135.800781 14.839844 C 135.972656 14.789062 136.152344 14.734375 136.332031 14.6875 C 136.558594 14.613281 136.789062 14.546875 137.027344 14.472656 C 137.367188 14.371094 137.367188 14.371094 137.714844 14.265625 C 138.414062 14.023438 138.414062 14.023438 138.882812 13.160156 C 138.855469 12.433594 138.855469 12.433594 138.597656 11.761719 C 137.472656 11.007812 136.5625 11.039062 135.238281 11.199219 C 134.40625 11.574219 134.40625 11.574219 133.839844 12.039062 C 134.113281 11.316406 134.390625 10.929688 134.976562 10.410156 C 136.152344 9.9375 137.109375 10.03125 138.320312 10.359375 Z M 138.320312 10.359375 "/>
<path style=" stroke:none;fill-rule:nonzero;fill:rgb(85.098039%,89.803922%,90.588235%);fill-opacity:1;" d="M 129.640625 8.960938 C 128.90625 9.691406 128.375 9.589844 127.378906 9.59375 C 127.050781 9.589844 127.050781 9.589844 126.71875 9.589844 C 126.390625 9.589844 126.390625 9.589844 126.058594 9.59375 C 124.964844 9.589844 124.410156 9.578125 123.480469 8.960938 C 125.6875 8.222656 127.429688 8.222656 129.640625 8.960938 Z M 129.640625 8.960938 "/>
<path style=" stroke:none;fill-rule:nonzero;fill:rgb(61.960784%,62.352941%,63.137255%);fill-opacity:1;" d="M 123.761719 13.71875 C 125.609375 13.71875 127.457031 13.71875 129.359375 13.71875 C 128.804688 13.996094 128.804688 13.996094 128.238281 14.28125 C 128.238281 14.460938 128.238281 14.648438 128.238281 14.839844 C 127.46875 15.347656 127.152344 15.40625 126.210938 15.296875 C 125.957031 15.238281 125.703125 15.179688 125.441406 15.117188 C 125.347656 14.839844 125.253906 14.5625 125.160156 14.28125 C 124.695312 14.1875 124.238281 14.097656 123.761719 14 C 123.761719 13.90625 123.761719 13.816406 123.761719 13.71875 Z M 123.761719 13.71875 "/>
<path style=" stroke:none;fill-rule:nonzero;fill:rgb(81.176471%,82.745098%,83.921569%);fill-opacity:1;" d="M 126 21 C 126.472656 21.078125 126.9375 21.171875 127.402344 21.28125 C 127.574219 21.804688 127.574219 21.804688 127.679688 22.402344 C 127.492188 22.585938 127.3125 22.769531 127.117188 22.960938 C 126.386719 22.855469 126.386719 22.855469 125.71875 22.679688 C 125.710938 22.210938 125.710938 21.746094 125.71875 21.28125 C 125.8125 21.1875 125.902344 21.097656 126 21 Z M 126 21 "/>
<path style=" stroke:none;fill-rule:nonzero;fill:rgb(10.588235%,41.960784%,43.137255%);fill-opacity:1;" d="M 127.960938 11.199219 C 128.554688 11.304688 128.554688 11.304688 129.078125 11.480469 C 129.394531 12.53125 129.394531 12.53125 129.078125 13.160156 C 128.617188 13.160156 128.15625 13.160156 127.679688 13.160156 C 127.507812 12.492188 127.507812 12.492188 127.402344 11.761719 C 127.585938 11.578125 127.769531 11.390625 127.960938 11.199219 Z M 127.960938 11.199219 "/>
<path style=" stroke:none;fill-rule:nonzero;fill:rgb(15.294118%,15.294118%,15.294118%);fill-opacity:1;" d="M 122.921875 10.921875 C 123.515625 11.027344 123.515625 11.027344 124.039062 11.199219 C 123.945312 11.570312 123.855469 11.9375 123.761719 12.320312 C 123.390625 12.320312 123.023438 12.320312 122.640625 12.320312 C 122.730469 12.6875 122.824219 13.058594 122.921875 13.441406 C 122.734375 13.441406 122.550781 13.441406 122.359375 13.441406 C 122.324219 12.492188 122.324219 12.492188 122.359375 11.480469 C 122.546875 11.296875 122.730469 11.109375 122.921875 10.921875 Z M 122.921875 10.921875 "/>
<path style=" stroke:none;fill-rule:nonzero;fill:rgb(89.019608%,93.333333%,94.117647%);fill-opacity:1;" d="M 129.640625 8.960938 C 129.078125 9.519531 129.078125 9.519531 128.414062 9.574219 C 128.15625 9.566406 127.90625 9.5625 127.644531 9.554688 C 127.261719 9.550781 127.261719 9.550781 126.871094 9.539062 C 126.675781 9.53125 126.480469 9.527344 126.28125 9.519531 C 126.558594 8.960938 126.558594 8.960938 127.015625 8.765625 C 127.925781 8.648438 128.738281 8.804688 129.640625 8.960938 Z M 129.640625 8.960938 "/>
<path style=" stroke:none;fill-rule:nonzero;fill:rgb(1.176471%,0.784314%,1.176471%);fill-opacity:1;" d="M 126.28125 12.597656 C 127.273438 12.773438 128.148438 13.039062 129.078125 13.441406 C 129.078125 13.53125 129.078125 13.625 129.078125 13.71875 C 127.972656 13.625 126.863281 13.539062 125.71875 13.441406 C 125.902344 13.164062 126.089844 12.886719 126.28125 12.597656 Z M 126.28125 12.597656 "/>
<path style=" stroke:none;fill-rule:nonzero;fill:rgb(13.72549%,58.431373%,60.392157%);fill-opacity:1;" d="M 125.71875 11.480469 C 125.71875 11.941406 125.71875 12.40625 125.71875 12.882812 C 125.257812 12.972656 124.796875 13.066406 124.320312 13.160156 C 124.320312 12.882812 124.320312 12.609375 124.320312 12.320312 C 124.597656 12.414062 124.871094 12.507812 125.160156 12.597656 C 125.25 12.320312 125.34375 12.042969 125.441406 11.761719 C 125.253906 11.761719 125.070312 11.761719 124.882812 11.761719 C 124.789062 11.941406 124.695312 12.128906 124.597656 12.320312 C 124.414062 12.230469 124.230469 12.136719 124.039062 12.039062 C 124.039062 11.855469 124.039062 11.667969 124.039062 11.480469 C 124.738281 11.132812 124.996094 11.261719 125.71875 11.480469 Z M 125.71875 11.480469 "/>
<path style=" stroke:none;fill-rule:nonzero;fill:rgb(9.411765%,18.431373%,18.431373%);fill-opacity:1;" d="M 124.039062 10.921875 C 124.316406 11.011719 124.59375 11.105469 124.882812 11.199219 C 124.601562 11.289062 124.324219 11.382812 124.039062 11.480469 C 124.503906 11.574219 124.964844 11.664062 125.441406 11.761719 C 125.347656 12.128906 125.253906 12.5 125.160156 12.882812 C 124.695312 12.789062 124.238281 12.695312 123.761719 12.597656 C 123.75 12.132812 123.75 11.664062 123.761719 11.199219 C 123.851562 11.105469 123.941406 11.011719 124.039062 10.921875 Z M 124.039062 10.921875 "/>
<path style=" stroke:none;fill-rule:nonzero;fill:rgb(21.568627%,22.352941%,22.745098%);fill-opacity:1;" d="M 138.882812 14 C 138.882812 14.183594 138.882812 14.371094 138.882812 14.558594 C 138.015625 15.136719 137.84375 15.1875 136.867188 15.15625 C 136.339844 15.136719 136.339844 15.136719 135.800781 15.117188 C 135.800781 15.027344 135.800781 14.933594 135.800781 14.839844 C 136.210938 14.699219 136.617188 14.558594 137.027344 14.421875 C 137.253906 14.339844 137.480469 14.265625 137.714844 14.183594 C 138.320312 14 138.320312 14 138.882812 14 Z M 138.882812 14 "/>
</g>
</svg>
