<?xml version="1.0" encoding="UTF-8"?>
<svg xmlns="http://www.w3.org/2000/svg" xmlns:xlink="http://www.w3.org/1999/xlink" width="130px" height="26px" viewBox="0 0 130 26" version="1.1">
<g id="surface1">
<path style=" stroke:none;fill-rule:nonzero;fill:rgb(45.490196%,66.666667%,61.176471%);fill-opacity:1;" d="M 121.730469 5.410156 C 121.882812 5.511719 122.039062 5.613281 122.199219 5.71875 C 122.441406 5.855469 122.441406 5.855469 122.6875 5.996094 C 123.683594 6.613281 124.199219 7.261719 124.800781 8.269531 C 125.15625 8.882812 125.15625 8.882812 125.578125 9.359375 C 126.5 9.511719 126.5 9.511719 127.398438 9.359375 C 128.273438 9.617188 128.984375 9.875 129.480469 10.660156 C 129.644531 11.941406 129.679688 12.449219 128.945312 13.519531 C 128.011719 14.15625 127.464844 14.148438 126.359375 14.039062 C 126.351562 14.183594 126.347656 14.328125 126.339844 14.480469 C 126.167969 16.8125 125.242188 18.6875 123.5 20.28125 C 123.328125 20.28125 123.15625 20.28125 122.980469 20.28125 C 122.984375 20.457031 122.992188 20.636719 123 20.820312 C 123.003906 21.054688 123.007812 21.289062 123.011719 21.53125 C 123.019531 21.761719 123.023438 21.996094 123.03125 22.234375 C 122.980469 22.878906 122.980469 22.878906 122.460938 23.660156 C 121.730469 23.738281 121.0625 23.769531 120.332031 23.761719 C 120.121094 23.765625 119.910156 23.765625 119.691406 23.765625 C 119.246094 23.765625 118.800781 23.765625 118.351562 23.761719 C 117.667969 23.757812 116.988281 23.761719 116.304688 23.765625 C 115.871094 23.765625 115.4375 23.765625 115.003906 23.761719 C 114.796875 23.765625 114.59375 23.765625 114.382812 23.769531 C 112.96875 23.75 112.96875 23.75 112.320312 23.300781 C 111.964844 22.726562 111.972656 22.285156 111.960938 21.613281 C 111.882812 20.5 111.882812 20.5 111.214844 19.597656 C 110.980469 19.394531 110.742188 19.191406 110.5 18.980469 C 108.851562 16.824219 108.445312 14.640625 108.679688 11.960938 C 109.152344 9.28125 110.632812 7.273438 112.839844 5.71875 C 115.175781 4.097656 119.257812 4.019531 121.730469 5.410156 Z M 117.261719 5.980469 C 117.261719 6.238281 117.261719 6.496094 117.261719 6.761719 C 117.515625 6.675781 117.773438 6.589844 118.039062 6.5 C 117.953125 6.328125 117.867188 6.15625 117.78125 5.980469 C 117.609375 5.980469 117.4375 5.980469 117.261719 5.980469 Z M 113.359375 9.621094 C 112.96875 10.402344 113.054688 11.097656 113.101562 11.960938 C 113.273438 12.132812 113.441406 12.304688 113.621094 12.480469 C 113.640625 12.191406 113.664062 11.902344 113.683594 11.601562 C 113.878906 10.660156 113.878906 10.660156 114.332031 10.34375 C 114.988281 10.117188 115.496094 10.078125 116.1875 10.078125 C 116.546875 10.082031 116.546875 10.082031 116.914062 10.082031 C 117.164062 10.085938 117.410156 10.089844 117.667969 10.089844 C 117.914062 10.089844 118.164062 10.089844 118.421875 10.089844 C 120.269531 10.101562 120.269531 10.101562 121.160156 10.398438 C 121.46875 11.328125 121.46875 11.328125 121.679688 12.21875 C 122.027344 11.804688 122.027344 11.804688 122.199219 11.179688 C 121.855469 10.140625 121.519531 9.257812 120.640625 8.578125 C 119.664062 8.414062 118.671875 8.460938 117.683594 8.464844 C 117.410156 8.460938 117.140625 8.457031 116.863281 8.449219 C 114.890625 8.445312 114.890625 8.445312 113.359375 9.621094 Z M 113.359375 9.621094 "/>
<path style=" stroke:none;fill-rule:nonzero;fill:rgb(92.156863%,93.72549%,94.901961%);fill-opacity:1;" d="M 116.179688 9.8125 C 116.417969 9.808594 116.65625 9.808594 116.902344 9.808594 C 117.273438 9.8125 117.273438 9.8125 117.648438 9.816406 C 117.898438 9.8125 118.144531 9.8125 118.398438 9.808594 C 118.757812 9.808594 118.757812 9.808594 119.121094 9.8125 C 119.335938 9.8125 119.554688 9.8125 119.777344 9.8125 C 120.664062 9.910156 121.226562 10.21875 121.875 10.824219 C 122.34375 11.714844 122.40625 12.546875 122.199219 13.519531 C 121.398438 14.601562 120.632812 15.007812 119.339844 15.339844 C 119.46875 15.453125 119.597656 15.566406 119.730469 15.679688 C 120.121094 16.121094 120.121094 16.121094 120.121094 16.898438 C 120.359375 16.886719 120.359375 16.886719 120.605469 16.871094 C 120.816406 16.867188 121.023438 16.859375 121.242188 16.851562 C 121.554688 16.835938 121.554688 16.835938 121.871094 16.824219 C 122.609375 16.917969 122.789062 17.097656 123.238281 17.679688 C 123.3125 18.234375 123.3125 18.234375 123.277344 18.867188 C 123.265625 19.09375 123.253906 19.324219 123.242188 19.558594 C 123.226562 19.796875 123.207031 20.035156 123.191406 20.28125 C 123.179688 20.519531 123.167969 20.757812 123.15625 21 C 123.050781 22.773438 123.050781 22.773438 122.460938 23.660156 C 121.730469 23.738281 121.0625 23.769531 120.332031 23.761719 C 120.121094 23.765625 119.910156 23.765625 119.691406 23.765625 C 119.246094 23.765625 118.800781 23.765625 118.351562 23.761719 C 117.667969 23.757812 116.988281 23.761719 116.304688 23.765625 C 115.871094 23.765625 115.4375 23.765625 115.003906 23.761719 C 114.695312 23.765625 114.695312 23.765625 114.382812 23.769531 C 112.988281 23.75 112.988281 23.75 112.320312 23.339844 C 111.980469 22.738281 111.960938 22.320312 111.957031 21.628906 C 111.957031 21.386719 111.953125 21.144531 111.953125 20.894531 C 111.957031 20.644531 111.960938 20.394531 111.960938 20.132812 C 111.960938 19.882812 111.957031 19.628906 111.953125 19.367188 C 111.953125 19.128906 111.957031 18.886719 111.957031 18.636719 C 111.957031 18.417969 111.957031 18.195312 111.960938 17.96875 C 112.007812 17.695312 112.007812 17.695312 112.058594 17.421875 C 112.863281 16.882812 113.023438 16.835938 113.929688 16.867188 C 114.257812 16.878906 114.582031 16.890625 114.921875 16.898438 C 115 16.691406 115.082031 16.480469 115.164062 16.265625 C 115.441406 15.601562 115.441406 15.601562 115.699219 15.339844 C 115.421875 15.238281 115.140625 15.136719 114.855469 15.03125 C 113.894531 14.609375 113.363281 14.199219 112.839844 13.261719 C 112.757812 12.542969 112.789062 11.90625 112.839844 11.179688 C 113.097656 11.566406 113.097656 11.566406 113.359375 11.960938 C 113.425781 11.714844 113.488281 11.464844 113.554688 11.210938 C 113.878906 10.398438 113.878906 10.398438 114.339844 10.09375 C 114.992188 9.855469 115.488281 9.8125 116.179688 9.8125 Z M 116.179688 9.8125 "/>
<path style=" stroke:none;fill-rule:nonzero;fill:rgb(0%,0%,0%);fill-opacity:1;" d="M 77.21875 4.679688 C 82.640625 4.679688 82.640625 4.679688 84.304688 5.882812 C 85.382812 7.347656 85.375 9.113281 85.144531 10.859375 C 84.984375 11.605469 84.71875 12.144531 84.238281 12.738281 C 84.070312 12.824219 83.898438 12.910156 83.71875 13 C 83.921875 13.1875 84.128906 13.375 84.335938 13.570312 C 85.652344 14.976562 85.636719 16.300781 85.605469 18.15625 C 85.492188 19.578125 85.164062 20.425781 84.09375 21.417969 C 81.738281 22.988281 81.753906 22.101562 77.21875 22.101562 C 77.21875 16.351562 77.21875 10.601562 77.21875 4.679688 Z M 80.078125 7.28125 C 80.078125 8.824219 80.078125 10.367188 80.078125 11.960938 C 81.585938 11.878906 81.585938 11.878906 82.128906 11.148438 C 82.558594 10.042969 82.546875 9.109375 82.273438 7.960938 C 81.789062 7.324219 81.789062 7.324219 80.078125 7.28125 Z M 80.078125 14.558594 C 80.078125 16.191406 80.078125 17.820312 80.078125 19.5 C 81.78125 19.699219 81.78125 19.699219 82.398438 19.070312 C 82.734375 18.34375 82.785156 17.828125 82.777344 17.03125 C 82.78125 16.785156 82.78125 16.542969 82.785156 16.289062 C 82.660156 15.460938 82.535156 15.109375 81.898438 14.558594 C 81.300781 14.558594 80.699219 14.558594 80.078125 14.558594 Z M 80.078125 14.558594 "/>
<path style=" stroke:none;fill-rule:nonzero;fill:rgb(0%,0%,0%);fill-opacity:1;" d="M 47.839844 4.679688 C 48.785156 4.679688 49.726562 4.679688 50.699219 4.679688 C 50.699219 7.082031 50.699219 9.484375 50.699219 11.960938 C 51.644531 11.960938 52.585938 11.960938 53.558594 11.960938 C 53.558594 9.558594 53.558594 7.15625 53.558594 4.679688 C 54.503906 4.679688 55.449219 4.679688 56.421875 4.679688 C 56.421875 10.429688 56.421875 16.175781 56.421875 22.101562 C 55.476562 22.101562 54.53125 22.101562 53.558594 22.101562 C 53.558594 19.613281 53.558594 17.125 53.558594 14.558594 C 52.617188 14.558594 51.671875 14.558594 50.699219 14.558594 C 50.699219 17.046875 50.699219 19.535156 50.699219 22.101562 C 49.757812 22.101562 48.8125 22.101562 47.839844 22.101562 C 47.839844 16.351562 47.839844 10.601562 47.839844 4.679688 Z M 47.839844 4.679688 "/>
<path style=" stroke:none;fill-rule:nonzero;fill:rgb(0%,0%,0%);fill-opacity:1;" d="M 94.640625 5.460938 C 96.011719 7.074219 95.980469 8.792969 95.992188 10.8125 C 95.996094 11.023438 95.996094 11.234375 95.996094 11.453125 C 96 11.898438 96 12.34375 96.003906 12.789062 C 96.003906 13.464844 96.011719 14.140625 96.019531 14.820312 C 96.023438 15.253906 96.023438 15.691406 96.023438 16.125 C 96.027344 16.324219 96.03125 16.523438 96.035156 16.730469 C 96.027344 18.425781 95.730469 20.082031 94.65625 21.433594 C 93.179688 22.554688 91.769531 22.550781 89.960938 22.359375 C 88.957031 22.035156 88.308594 21.535156 87.652344 20.703125 C 87.03125 19.25 87.054688 17.726562 87.046875 16.171875 C 87.046875 15.953125 87.042969 15.738281 87.042969 15.511719 C 87.039062 15.054688 87.039062 14.597656 87.039062 14.136719 C 87.035156 13.445312 87.027344 12.75 87.019531 12.054688 C 87.015625 11.605469 87.015625 11.160156 87.015625 10.710938 C 87.011719 10.507812 87.007812 10.300781 87.003906 10.089844 C 87.011719 8.527344 87.191406 6.792969 88.238281 5.554688 C 90.148438 3.878906 92.632812 4.019531 94.640625 5.460938 Z M 90.578125 7.378906 C 89.753906 8.347656 89.914062 9.398438 89.90625 10.609375 C 89.90625 10.835938 89.902344 11.066406 89.902344 11.300781 C 89.898438 11.78125 89.898438 12.261719 89.898438 12.746094 C 89.894531 13.484375 89.886719 14.21875 89.878906 14.957031 C 89.878906 15.425781 89.875 15.894531 89.875 16.363281 C 89.871094 16.582031 89.867188 16.800781 89.863281 17.03125 C 89.867188 17.945312 89.875 18.558594 90.304688 19.378906 C 90.746094 19.828125 90.746094 19.828125 91.519531 19.90625 C 92.324219 19.839844 92.324219 19.839844 92.730469 19.246094 C 93.199219 18.195312 93.203125 17.296875 93.203125 16.160156 C 93.203125 15.941406 93.207031 15.71875 93.207031 15.492188 C 93.210938 15.03125 93.210938 14.566406 93.210938 14.101562 C 93.210938 13.390625 93.222656 12.683594 93.230469 11.976562 C 93.234375 11.523438 93.234375 11.070312 93.234375 10.621094 C 93.238281 10.410156 93.242188 10.199219 93.246094 9.980469 C 93.234375 8.867188 93.171875 8.4375 92.46875 7.527344 C 91.722656 6.976562 91.332031 6.738281 90.578125 7.378906 Z M 90.578125 7.378906 "/>
<path style=" stroke:none;fill-rule:nonzero;fill:rgb(0%,0%,0%);fill-opacity:1;" d="M 8.578125 5.199219 C 9.617188 6.292969 9.917969 7.125 9.914062 8.613281 C 9.914062 8.960938 9.914062 8.960938 9.914062 9.3125 C 9.878906 9.878906 9.878906 9.878906 9.621094 10.140625 C 8.839844 10.175781 8.0625 10.152344 7.28125 10.140625 C 7.109375 9.28125 6.9375 8.425781 6.761719 7.539062 C 5.492188 7.125 5.492188 7.125 4.679688 7.800781 C 4.566406 8.296875 4.566406 8.296875 4.585938 8.878906 C 4.585938 9.097656 4.585938 9.320312 4.585938 9.550781 C 4.589844 9.789062 4.589844 10.03125 4.59375 10.277344 C 4.59375 10.523438 4.59375 10.769531 4.597656 11.023438 C 4.597656 11.546875 4.601562 12.066406 4.605469 12.585938 C 4.613281 13.386719 4.617188 14.1875 4.617188 14.984375 C 4.621094 15.492188 4.625 15.996094 4.628906 16.5 C 4.628906 16.863281 4.628906 16.863281 4.628906 17.230469 C 4.632812 17.453125 4.636719 17.675781 4.636719 17.902344 C 4.640625 18.195312 4.640625 18.195312 4.644531 18.496094 C 4.652344 19.003906 4.652344 19.003906 4.941406 19.5 C 5.453125 19.5 5.96875 19.5 6.5 19.5 C 7.058594 18.582031 7.117188 17.769531 7.183594 16.703125 C 7.203125 16.402344 7.222656 16.097656 7.242188 15.78125 C 7.253906 15.550781 7.265625 15.320312 7.28125 15.078125 C 6.765625 15.078125 6.25 15.078125 5.71875 15.078125 C 5.71875 14.222656 5.71875 13.363281 5.71875 12.480469 C 7.09375 12.480469 8.464844 12.480469 9.878906 12.480469 C 9.90625 13.65625 9.929688 14.832031 9.945312 16.007812 C 9.953125 16.339844 9.960938 16.671875 9.972656 17.011719 C 9.992188 18.847656 9.996094 20.113281 8.839844 21.578125 C 7.636719 22.511719 6.378906 22.453125 4.914062 22.464844 C 3.730469 22.300781 3.0625 21.804688 2.273438 20.929688 C 1.660156 20.050781 1.527344 19.390625 1.519531 18.34375 C 1.515625 18.109375 1.511719 17.875 1.511719 17.636719 C 1.507812 17.382812 1.507812 17.132812 1.507812 16.871094 C 1.503906 16.613281 1.503906 16.351562 1.503906 16.082031 C 1.5 15.53125 1.5 14.980469 1.496094 14.429688 C 1.496094 13.59375 1.488281 12.753906 1.480469 11.914062 C 1.476562 11.378906 1.476562 10.84375 1.476562 10.304688 C 1.472656 10.058594 1.46875 9.808594 1.464844 9.550781 C 1.46875 8.070312 1.625 7.027344 2.339844 5.71875 C 4.140625 3.96875 6.445312 4.007812 8.578125 5.199219 Z M 8.578125 5.199219 "/>
<path style=" stroke:none;fill-rule:nonzero;fill:rgb(0%,0%,0%);fill-opacity:1;" d="M 61.101562 4.679688 C 62.300781 4.679688 63.503906 4.679688 64.738281 4.679688 C 65.113281 6.835938 65.488281 8.992188 65.859375 11.148438 C 66.03125 12.148438 66.203125 13.152344 66.378906 14.152344 C 66.546875 15.117188 66.710938 16.082031 66.878906 17.050781 C 66.941406 17.417969 67.007812 17.789062 67.070312 18.15625 C 67.160156 18.671875 67.25 19.1875 67.335938 19.703125 C 67.386719 19.996094 67.4375 20.292969 67.492188 20.59375 C 67.601562 21.320312 67.601562 21.320312 67.601562 22.101562 C 66.65625 22.101562 65.710938 22.101562 64.738281 22.101562 C 64.417969 20.765625 64.148438 19.582031 64.21875 18.199219 C 63.277344 18.199219 62.332031 18.199219 61.359375 18.199219 C 61.34375 18.460938 61.328125 18.71875 61.3125 18.988281 C 61.289062 19.324219 61.269531 19.65625 61.246094 20.003906 C 61.226562 20.339844 61.203125 20.671875 61.183594 21.019531 C 61.101562 21.839844 61.101562 21.839844 60.839844 22.101562 C 60.359375 22.117188 59.875 22.121094 59.394531 22.117188 C 59 22.113281 59 22.113281 58.597656 22.109375 C 58.394531 22.105469 58.191406 22.101562 57.980469 22.101562 C 58.734375 17.539062 59.492188 12.976562 60.269531 8.417969 C 60.324219 8.097656 60.378906 7.78125 60.433594 7.453125 C 60.484375 7.160156 60.535156 6.871094 60.585938 6.570312 C 60.628906 6.316406 60.671875 6.0625 60.714844 5.800781 C 60.839844 5.199219 60.839844 5.199219 61.101562 4.679688 Z M 62.660156 9.101562 C 62.527344 9.988281 62.398438 10.875 62.269531 11.765625 C 62.234375 12.015625 62.195312 12.269531 62.15625 12.527344 C 62.121094 12.769531 62.085938 13.015625 62.050781 13.265625 C 62.019531 13.488281 61.984375 13.710938 61.953125 13.941406 C 61.859375 14.628906 61.859375 14.628906 61.878906 15.601562 C 62.480469 15.601562 63.082031 15.601562 63.699219 15.601562 C 63.617188 14.859375 63.539062 14.117188 63.457031 13.375 C 63.433594 13.164062 63.410156 12.957031 63.386719 12.742188 C 63.253906 11.523438 63.101562 10.3125 62.921875 9.101562 C 62.835938 9.101562 62.75 9.101562 62.660156 9.101562 Z M 62.660156 9.101562 "/>
<path style=" stroke:none;fill-rule:nonzero;fill:rgb(0%,0%,0%);fill-opacity:1;" d="M 44.460938 5.199219 C 45.59375 6.394531 45.792969 7.273438 45.777344 8.890625 C 45.773438 9.171875 45.773438 9.453125 45.769531 9.746094 C 45.765625 9.960938 45.761719 10.175781 45.761719 10.398438 C 44.902344 10.398438 44.042969 10.398438 43.160156 10.398438 C 42.988281 9.457031 42.816406 8.511719 42.640625 7.539062 C 41.433594 7.140625 41.433594 7.140625 40.875 7.585938 C 40.5 8.148438 40.460938 8.445312 40.464844 9.113281 C 40.460938 9.324219 40.460938 9.535156 40.457031 9.753906 C 40.460938 9.980469 40.464844 10.207031 40.464844 10.441406 C 40.464844 10.675781 40.464844 10.90625 40.464844 11.148438 C 40.464844 11.644531 40.46875 12.136719 40.472656 12.628906 C 40.480469 13.386719 40.476562 14.144531 40.476562 14.898438 C 40.476562 15.378906 40.480469 15.859375 40.480469 16.339844 C 40.480469 16.566406 40.480469 16.792969 40.480469 17.027344 C 40.484375 17.238281 40.484375 17.449219 40.488281 17.664062 C 40.488281 17.851562 40.492188 18.035156 40.492188 18.226562 C 40.535156 18.804688 40.535156 18.804688 41.078125 19.5 C 41.75 19.566406 41.75 19.566406 42.378906 19.5 C 42.847656 18.6875 42.988281 18.023438 43.0625 17.09375 C 43.082031 16.863281 43.101562 16.632812 43.121094 16.390625 C 43.132812 16.214844 43.148438 16.039062 43.160156 15.859375 C 45.175781 15.828125 45.175781 15.828125 45.761719 16.121094 C 45.960938 20.113281 45.960938 20.113281 44.71875 21.578125 C 43.363281 22.632812 41.683594 22.5625 40.039062 22.359375 C 38.859375 21.800781 38.257812 21.195312 37.699219 20.019531 C 37.484375 19.292969 37.40625 18.644531 37.402344 17.886719 C 37.398438 17.570312 37.398438 17.570312 37.398438 17.242188 C 37.398438 17.015625 37.398438 16.789062 37.394531 16.554688 C 37.394531 16.316406 37.394531 16.082031 37.394531 15.835938 C 37.390625 15.335938 37.390625 14.835938 37.390625 14.335938 C 37.390625 13.574219 37.386719 12.8125 37.382812 12.050781 C 37.378906 11.5625 37.378906 11.078125 37.378906 10.589844 C 37.378906 10.363281 37.375 10.136719 37.375 9.90625 C 37.378906 8.238281 37.464844 6.839844 38.5625 5.507812 C 40.410156 4.003906 42.421875 4.0625 44.460938 5.199219 Z M 44.460938 5.199219 "/>
<path style=" stroke:none;fill-rule:nonzero;fill:rgb(0%,0%,0%);fill-opacity:1;" d="M 12.21875 4.679688 C 17.421875 4.679688 17.421875 4.679688 19.5 5.71875 C 20.910156 7.550781 20.757812 9.753906 20.539062 11.960938 C 20.289062 13.039062 19.921875 13.707031 19.050781 14.394531 C 17.621094 15.226562 16.929688 15.078125 15.078125 15.078125 C 15.078125 17.398438 15.078125 19.714844 15.078125 22.101562 C 14.136719 22.101562 13.191406 22.101562 12.21875 22.101562 C 12.21875 16.351562 12.21875 10.601562 12.21875 4.679688 Z M 15.078125 7.28125 C 15.078125 8.996094 15.078125 10.710938 15.078125 12.480469 C 16.109375 12.351562 16.109375 12.351562 17.160156 12.21875 C 17.753906 11.332031 17.765625 10.945312 17.777344 9.894531 C 17.785156 9.625 17.792969 9.355469 17.800781 9.078125 C 17.734375 8.300781 17.734375 8.300781 17.25 7.703125 C 16.550781 7.132812 16.550781 7.132812 15.078125 7.28125 Z M 15.078125 7.28125 "/>
<path style=" stroke:none;fill-rule:nonzero;fill:rgb(0%,0%,0%);fill-opacity:1;" d="M 21.058594 4.679688 C 23.890625 4.679688 26.722656 4.679688 29.640625 4.679688 C 29.640625 5.539062 29.640625 6.394531 29.640625 7.28125 C 28.695312 7.28125 27.753906 7.28125 26.78125 7.28125 C 26.78125 12.171875 26.78125 17.0625 26.78125 22.101562 C 25.835938 22.101562 24.890625 22.101562 23.921875 22.101562 C 23.921875 17.210938 23.921875 12.320312 23.921875 7.28125 C 22.976562 7.28125 22.03125 7.28125 21.058594 7.28125 C 21.058594 6.421875 21.058594 5.5625 21.058594 4.679688 Z M 21.058594 4.679688 "/>
<path style=" stroke:none;fill-rule:nonzero;fill:rgb(0%,0%,0%);fill-opacity:1;" d="M 96.980469 4.679688 C 99.726562 4.679688 102.472656 4.679688 105.300781 4.679688 C 105.300781 5.539062 105.300781 6.394531 105.300781 7.28125 C 104.441406 7.28125 103.585938 7.28125 102.699219 7.28125 C 102.699219 12.171875 102.699219 17.0625 102.699219 22.101562 C 101.757812 22.101562 100.8125 22.101562 99.839844 22.101562 C 99.839844 17.210938 99.839844 12.320312 99.839844 7.28125 C 98.894531 7.28125 97.953125 7.28125 96.980469 7.28125 C 96.980469 6.421875 96.980469 5.5625 96.980469 4.679688 Z M 96.980469 4.679688 "/>
<path style=" stroke:none;fill-rule:nonzero;fill:rgb(0%,0%,0%);fill-opacity:1;" d="M 67.339844 4.679688 C 70.085938 4.679688 72.832031 4.679688 75.660156 4.679688 C 75.660156 5.539062 75.660156 6.394531 75.660156 7.28125 C 74.714844 7.28125 73.773438 7.28125 72.800781 7.28125 C 72.800781 12.171875 72.800781 17.0625 72.800781 22.101562 C 71.855469 22.101562 70.914062 22.101562 69.941406 22.101562 C 69.941406 17.210938 69.941406 12.320312 69.941406 7.28125 C 69.082031 7.28125 68.222656 7.28125 67.339844 7.28125 C 67.339844 6.421875 67.339844 5.5625 67.339844 4.679688 Z M 67.339844 4.679688 "/>
<path style=" stroke:none;fill-rule:nonzero;fill:rgb(14.509804%,16.862745%,16.862745%);fill-opacity:1;" d="M 117.667969 9.796875 C 117.910156 9.796875 118.15625 9.796875 118.410156 9.796875 C 120.5625 9.8125 120.5625 9.8125 121.421875 10.398438 C 121.648438 11.308594 121.648438 11.308594 121.679688 12.21875 C 121.160156 12.738281 121.160156 12.738281 120.464844 12.804688 C 120.175781 12.800781 119.886719 12.800781 119.59375 12.800781 C 119.121094 12.800781 119.121094 12.800781 118.644531 12.796875 C 118.152344 12.792969 118.152344 12.792969 117.648438 12.789062 C 117.15625 12.789062 117.15625 12.789062 116.65625 12.789062 C 114.214844 12.777344 114.214844 12.777344 113.621094 12.480469 C 113.539062 11.617188 113.539062 11.617188 113.621094 10.660156 C 114.777344 9.597656 116.191406 9.773438 117.667969 9.796875 Z M 117.667969 9.796875 "/>
<path style=" stroke:none;fill-rule:nonzero;fill:rgb(90.980392%,93.72549%,94.509804%);fill-opacity:1;" d="M 112.839844 11.179688 C 113.097656 11.566406 113.097656 11.566406 113.359375 11.960938 C 113.671875 12.414062 113.671875 12.414062 114.140625 12.738281 C 114.855469 12.855469 114.855469 12.855469 115.667969 12.835938 C 115.964844 12.835938 116.265625 12.835938 116.574219 12.832031 C 116.886719 12.828125 117.199219 12.824219 117.519531 12.820312 C 117.832031 12.820312 118.144531 12.824219 118.464844 12.824219 C 120.171875 12.878906 120.171875 12.878906 121.679688 12.21875 C 121.851562 11.960938 122.023438 11.707031 122.199219 11.441406 C 122.355469 13.273438 122.355469 13.273438 121.757812 14.230469 C 120.621094 15.269531 118.957031 15.015625 117.519531 15 C 117.214844 15.007812 116.910156 15.011719 116.59375 15.019531 C 114.441406 15.015625 114.441406 15.015625 113.640625 14.5 C 113.136719 13.9375 112.867188 13.390625 112.714844 12.652344 C 112.753906 12.160156 112.796875 11.671875 112.839844 11.179688 Z M 112.839844 11.179688 "/>
<path style=" stroke:none;fill-rule:nonzero;fill:rgb(0%,0%,0%);fill-opacity:1;" d="M 30.160156 12.21875 C 31.960938 12.21875 33.761719 12.21875 35.621094 12.21875 C 35.621094 13.078125 35.621094 13.9375 35.621094 14.820312 C 33.816406 14.820312 32.015625 14.820312 30.160156 14.820312 C 30.160156 13.960938 30.160156 13.105469 30.160156 12.21875 Z M 30.160156 12.21875 "/>
<path style=" stroke:none;fill-rule:nonzero;fill:rgb(89.019608%,92.54902%,93.333333%);fill-opacity:1;" d="M 127.921875 10.140625 C 128.734375 10.707031 128.734375 10.707031 129.21875 11.441406 C 129.238281 12.257812 129.085938 12.585938 128.570312 13.210938 C 127.371094 13.78125 126.039062 13.671875 124.800781 13.261719 C 124.363281 12.648438 124.277344 12.308594 124.3125 11.554688 C 124.898438 9.921875 126.390625 9.847656 127.921875 10.140625 Z M 127.921875 10.140625 "/>
<path style=" stroke:none;fill-rule:nonzero;fill:rgb(83.137255%,93.72549%,94.117647%);fill-opacity:1;" d="M 114.921875 14.820312 C 116.636719 14.820312 118.351562 14.820312 120.121094 14.820312 C 119.863281 14.992188 119.605469 15.164062 119.339844 15.339844 C 119.46875 15.453125 119.597656 15.566406 119.730469 15.679688 C 120.121094 16.121094 120.121094 16.121094 120.121094 16.898438 C 120.890625 16.898438 121.664062 16.898438 122.460938 16.898438 C 122.460938 16.984375 122.460938 17.070312 122.460938 17.160156 C 119.285156 17.160156 116.109375 17.160156 112.839844 17.160156 C 112.839844 17.074219 112.839844 16.988281 112.839844 16.898438 C 113.527344 16.898438 114.210938 16.898438 114.921875 16.898438 C 115 16.691406 115.082031 16.480469 115.164062 16.265625 C 115.441406 15.601562 115.441406 15.601562 115.699219 15.339844 C 115.441406 15.167969 115.183594 14.996094 114.921875 14.820312 Z M 114.921875 14.820312 "/>
<path style=" stroke:none;fill-rule:nonzero;fill:rgb(2.745098%,3.921569%,3.921569%);fill-opacity:1;" d="M 113.878906 11.441406 C 114.066406 11.476562 114.253906 11.515625 114.449219 11.554688 C 114.8125 11.625 114.8125 11.625 115.179688 11.699219 C 115.410156 11.757812 115.640625 11.816406 115.878906 11.878906 C 116.175781 11.917969 116.175781 11.917969 116.480469 11.960938 C 116.652344 11.789062 116.824219 11.617188 117 11.441406 C 117.683594 11.40625 117.683594 11.40625 118.300781 11.441406 C 118.386719 11.613281 118.472656 11.78125 118.558594 11.960938 C 119.21875 12.128906 119.21875 12.128906 119.859375 12.21875 C 119.945312 11.960938 120.03125 11.707031 120.121094 11.441406 C 120.550781 11.441406 120.976562 11.441406 121.421875 11.441406 C 121.335938 11.867188 121.25 12.296875 121.160156 12.738281 C 118.84375 12.738281 116.527344 12.738281 114.140625 12.738281 C 114.054688 12.3125 113.96875 11.882812 113.878906 11.441406 Z M 113.878906 11.441406 "/>
<path style=" stroke:none;fill-rule:nonzero;fill:rgb(19.215686%,19.215686%,19.215686%);fill-opacity:1;" d="M 117.667969 9.796875 C 117.910156 9.796875 118.15625 9.796875 118.410156 9.796875 C 120.570312 9.8125 120.570312 9.8125 121.421875 10.398438 C 121.613281 11.34375 121.613281 11.34375 121.679688 12.21875 C 121.59375 11.960938 121.507812 11.707031 121.421875 11.441406 C 120.992188 11.441406 120.5625 11.441406 120.121094 11.441406 C 120.035156 11.011719 119.949219 10.582031 119.859375 10.140625 C 118.316406 10.226562 116.769531 10.3125 115.179688 10.398438 C 115.09375 10.742188 115.007812 11.085938 114.921875 11.441406 C 114.578125 11.441406 114.234375 11.441406 113.878906 11.441406 C 113.964844 11.78125 114.050781 12.125 114.140625 12.480469 C 113.96875 12.480469 113.796875 12.480469 113.621094 12.480469 C 113.539062 11.617188 113.539062 11.617188 113.621094 10.660156 C 114.777344 9.597656 116.191406 9.773438 117.667969 9.796875 Z M 117.667969 9.796875 "/>
<path style=" stroke:none;fill-rule:nonzero;fill:rgb(30.196078%,31.372549%,31.372549%);fill-opacity:1;" d="M 128.441406 9.621094 C 129.105469 10.027344 129.105469 10.027344 129.480469 10.660156 C 129.664062 11.941406 129.679688 12.441406 128.960938 13.519531 C 127.914062 14.21875 127.335938 14.144531 126.101562 14.039062 C 126.101562 13.953125 126.101562 13.867188 126.101562 13.78125 C 126.261719 13.734375 126.425781 13.683594 126.59375 13.636719 C 126.804688 13.570312 127.019531 13.507812 127.238281 13.4375 C 127.554688 13.34375 127.554688 13.34375 127.878906 13.246094 C 128.527344 13.023438 128.527344 13.023438 128.960938 12.21875 C 128.9375 11.546875 128.9375 11.546875 128.699219 10.921875 C 127.652344 10.222656 126.808594 10.25 125.578125 10.398438 C 124.804688 10.746094 124.804688 10.746094 124.28125 11.179688 C 124.535156 10.507812 124.792969 10.148438 125.335938 9.667969 C 126.425781 9.226562 127.316406 9.316406 128.441406 9.621094 Z M 128.441406 9.621094 "/>
<path style=" stroke:none;fill-rule:nonzero;fill:rgb(85.098039%,89.803922%,90.588235%);fill-opacity:1;" d="M 120.378906 8.320312 C 119.699219 9 119.207031 8.90625 118.28125 8.910156 C 117.976562 8.90625 117.976562 8.90625 117.667969 8.90625 C 117.363281 8.90625 117.363281 8.90625 117.054688 8.910156 C 116.039062 8.90625 115.523438 8.894531 114.660156 8.320312 C 116.710938 7.636719 118.328125 7.636719 120.378906 8.320312 Z M 120.378906 8.320312 "/>
<path style=" stroke:none;fill-rule:nonzero;fill:rgb(61.960784%,62.352941%,63.137255%);fill-opacity:1;" d="M 114.921875 12.738281 C 116.636719 12.738281 118.351562 12.738281 120.121094 12.738281 C 119.605469 12.996094 119.605469 12.996094 119.078125 13.261719 C 119.078125 13.429688 119.078125 13.601562 119.078125 13.78125 C 118.363281 14.25 118.070312 14.304688 117.195312 14.203125 C 116.960938 14.148438 116.722656 14.09375 116.480469 14.039062 C 116.394531 13.78125 116.308594 13.523438 116.21875 13.261719 C 115.789062 13.175781 115.363281 13.089844 114.921875 13 C 114.921875 12.914062 114.921875 12.828125 114.921875 12.738281 Z M 114.921875 12.738281 "/>
<path style=" stroke:none;fill-rule:nonzero;fill:rgb(81.176471%,82.745098%,83.921569%);fill-opacity:1;" d="M 117 19.5 C 117.4375 19.574219 117.871094 19.660156 118.300781 19.761719 C 118.460938 20.246094 118.460938 20.246094 118.558594 20.800781 C 118.386719 20.972656 118.21875 21.144531 118.039062 21.320312 C 117.359375 21.222656 117.359375 21.222656 116.738281 21.058594 C 116.730469 20.625 116.730469 20.191406 116.738281 19.761719 C 116.824219 19.675781 116.910156 19.589844 117 19.5 Z M 117 19.5 "/>
<path style=" stroke:none;fill-rule:nonzero;fill:rgb(10.588235%,41.960784%,43.137255%);fill-opacity:1;" d="M 118.820312 10.398438 C 119.371094 10.496094 119.371094 10.496094 119.859375 10.660156 C 120.152344 11.636719 120.152344 11.636719 119.859375 12.21875 C 119.429688 12.21875 119.003906 12.21875 118.558594 12.21875 C 118.398438 11.601562 118.398438 11.601562 118.300781 10.921875 C 118.472656 10.75 118.644531 10.578125 118.820312 10.398438 Z M 118.820312 10.398438 "/>
<path style=" stroke:none;fill-rule:nonzero;fill:rgb(15.294118%,15.294118%,15.294118%);fill-opacity:1;" d="M 114.140625 10.140625 C 114.691406 10.238281 114.691406 10.238281 115.179688 10.398438 C 115.09375 10.742188 115.007812 11.085938 114.921875 11.441406 C 114.578125 11.441406 114.234375 11.441406 113.878906 11.441406 C 113.964844 11.78125 114.050781 12.125 114.140625 12.480469 C 113.96875 12.480469 113.796875 12.480469 113.621094 12.480469 C 113.585938 11.601562 113.585938 11.601562 113.621094 10.660156 C 113.792969 10.488281 113.964844 10.316406 114.140625 10.140625 Z M 114.140625 10.140625 "/>
<path style=" stroke:none;fill-rule:nonzero;fill:rgb(89.019608%,93.333333%,94.117647%);fill-opacity:1;" d="M 120.378906 8.320312 C 119.859375 8.839844 119.859375 8.839844 119.242188 8.890625 C 119.003906 8.882812 118.769531 8.878906 118.527344 8.871094 C 118.171875 8.867188 118.171875 8.867188 117.808594 8.859375 C 117.628906 8.851562 117.445312 8.847656 117.261719 8.839844 C 117.519531 8.320312 117.519531 8.320312 117.941406 8.140625 C 118.789062 8.03125 119.542969 8.175781 120.378906 8.320312 Z M 120.378906 8.320312 "/>
<path style=" stroke:none;fill-rule:nonzero;fill:rgb(1.176471%,0.784314%,1.176471%);fill-opacity:1;" d="M 117.261719 11.699219 C 118.183594 11.859375 118.996094 12.109375 119.859375 12.480469 C 119.859375 12.566406 119.859375 12.652344 119.859375 12.738281 C 118.832031 12.652344 117.800781 12.570312 116.738281 12.480469 C 116.910156 12.222656 117.082031 11.964844 117.261719 11.699219 Z M 117.261719 11.699219 "/>
<path style=" stroke:none;fill-rule:nonzero;fill:rgb(13.72549%,58.431373%,60.392157%);fill-opacity:1;" d="M 116.738281 10.660156 C 116.738281 11.089844 116.738281 11.519531 116.738281 11.960938 C 116.3125 12.046875 115.882812 12.132812 115.441406 12.21875 C 115.441406 11.960938 115.441406 11.707031 115.441406 11.441406 C 115.699219 11.527344 115.953125 11.613281 116.21875 11.699219 C 116.304688 11.441406 116.390625 11.183594 116.480469 10.921875 C 116.308594 10.921875 116.136719 10.921875 115.960938 10.921875 C 115.875 11.089844 115.789062 11.261719 115.699219 11.441406 C 115.527344 11.355469 115.355469 11.269531 115.179688 11.179688 C 115.179688 11.007812 115.179688 10.835938 115.179688 10.660156 C 115.828125 10.335938 116.066406 10.457031 116.738281 10.660156 Z M 116.738281 10.660156 "/>
<path style=" stroke:none;fill-rule:nonzero;fill:rgb(9.411765%,18.431373%,18.431373%);fill-opacity:1;" d="M 115.179688 10.140625 C 115.4375 10.226562 115.695312 10.3125 115.960938 10.398438 C 115.703125 10.484375 115.445312 10.570312 115.179688 10.660156 C 115.609375 10.746094 116.039062 10.832031 116.480469 10.921875 C 116.394531 11.261719 116.308594 11.605469 116.21875 11.960938 C 115.789062 11.875 115.363281 11.789062 114.921875 11.699219 C 114.910156 11.265625 114.910156 10.832031 114.921875 10.398438 C 115.003906 10.3125 115.089844 10.226562 115.179688 10.140625 Z M 115.179688 10.140625 "/>
<path style=" stroke:none;fill-rule:nonzero;fill:rgb(21.568627%,22.352941%,22.745098%);fill-opacity:1;" d="M 128.960938 13 C 128.960938 13.171875 128.960938 13.34375 128.960938 13.519531 C 128.15625 14.054688 127.996094 14.101562 127.089844 14.074219 C 126.601562 14.054688 126.601562 14.054688 126.101562 14.039062 C 126.101562 13.953125 126.101562 13.867188 126.101562 13.78125 C 126.480469 13.648438 126.859375 13.519531 127.238281 13.390625 C 127.449219 13.316406 127.660156 13.246094 127.878906 13.171875 C 128.441406 13 128.441406 13 128.960938 13 Z M 128.960938 13 "/>
</g>
</svg>
